<svg width="817" height="621" viewBox="0 0 817 621" fill="none" xmlns="http://www.w3.org/2000/svg">
#mobile{
    animation: mobile 4s infinite linear;
    transform-origin: center;
    transform-box: fill-box;
}

 @keyframes mobile {
    0%,
    100% {
    transform: translateY(0);
  }
  50% {
    transform: translateY(-15px);
  }


</style>
<g id="undraw_order_confirmed_re_g0if 1">
<g id="mobile">
<path id="Vector" d="M391.217 170.781H388.239V89.2108C388.239 83.011 387.018 76.8719 384.646 71.144C382.273 65.4161 378.796 60.2117 374.412 55.8277C370.028 51.4438 364.823 47.9663 359.095 45.5937C353.368 43.2212 347.229 42 341.029 42H168.211C155.69 42 143.681 46.9739 134.828 55.8276C125.974 64.6813 121 76.6895 121 89.2106V536.712C121 542.912 122.221 549.051 124.594 554.779C126.966 560.507 130.444 565.711 134.828 570.095C139.212 574.479 144.416 577.957 150.144 580.329C155.872 582.702 162.011 583.923 168.211 583.923H341.029C353.55 583.923 365.558 578.949 374.412 570.095C383.265 561.242 388.239 549.233 388.239 536.712V228.844H391.217V170.781Z" fill="#3F3D56"/>
<path id="Vector_2" d="M342.934 54.2826H320.375C321.412 56.826 321.808 59.5855 321.528 62.3179C321.248 65.0504 320.3 67.672 318.768 69.9518C317.236 72.2317 315.166 74.0997 312.742 75.3914C310.318 76.6831 307.613 77.3588 304.867 77.359H205.861C203.115 77.3588 200.41 76.6831 197.986 75.3914C195.562 74.0997 193.492 72.2317 191.96 69.9519C190.428 67.672 189.48 65.0504 189.2 62.3179C188.92 59.5855 189.316 56.826 190.353 54.2826H169.283C164.653 54.2826 160.069 55.1945 155.791 56.9663C151.514 58.7381 147.627 61.3351 144.353 64.6089C141.079 67.8828 138.482 71.7694 136.711 76.047C134.939 80.3245 134.027 84.9091 134.027 89.539V536.384C134.027 541.014 134.939 545.598 136.711 549.876C138.482 554.153 141.079 558.04 144.353 561.314C147.627 564.588 151.514 567.185 155.791 568.957C160.069 570.728 164.653 571.64 169.283 571.64H342.934C347.563 571.64 352.148 570.728 356.426 568.957C360.703 567.185 364.59 564.588 367.864 561.314C371.137 558.04 373.734 554.153 375.506 549.876C377.278 545.598 378.19 541.014 378.19 536.384V89.539C378.19 84.9091 377.278 80.3245 375.506 76.047C373.734 71.7694 371.137 67.8828 367.864 64.6089C364.59 61.3351 360.703 58.7381 356.426 56.9663C352.148 55.1945 347.563 54.2826 342.934 54.2826Z" fill="white"/>
<path id="Ellipse 44" d="M256.108 387.68C302.747 387.68 340.555 349.872 340.555 303.234C340.555 256.595 302.747 218.787 256.108 218.787C209.47 218.787 171.662 256.595 171.662 303.234C171.662 349.872 209.47 387.68 256.108 387.68Z" fill="#FFDBF5"/>
<path id="Path 395" d="M247.74 335.447C245.841 335.451 243.991 334.836 242.471 333.696L242.377 333.626L222.531 318.444C221.612 317.739 220.841 316.861 220.261 315.858C219.681 314.855 219.305 313.748 219.153 312.6C219.002 311.451 219.078 310.285 219.377 309.166C219.676 308.047 220.193 306.998 220.898 306.079C221.602 305.16 222.481 304.388 223.484 303.809C224.487 303.229 225.594 302.853 226.742 302.701C227.89 302.55 229.057 302.626 230.176 302.925C231.295 303.224 232.344 303.741 233.263 304.446L246.117 314.303L276.494 274.674C277.198 273.755 278.076 272.984 279.079 272.405C280.081 271.826 281.188 271.449 282.336 271.298C283.483 271.146 284.65 271.222 285.768 271.521C286.886 271.821 287.935 272.337 288.854 273.041L288.856 273.043L288.668 273.305L288.861 273.043C290.715 274.468 291.928 276.57 292.233 278.887C292.539 281.205 291.913 283.549 290.492 285.406L254.763 331.998C253.936 333.071 252.874 333.94 251.657 334.536C250.441 335.133 249.103 335.441 247.748 335.437L247.74 335.447Z" fill="#C2C3F5"/>
</g>
<path id="Vector_3" d="M694.245 550.3C695.272 548.639 696.482 547.098 697.851 545.705C698.415 545.119 699.011 544.568 699.625 544.031C703.359 540.708 707.91 538.439 712.811 537.458C717.713 536.476 722.787 536.819 727.512 538.449C732.238 540.079 736.444 542.938 739.698 546.732C742.952 550.527 745.136 555.119 746.027 560.038C750.151 544.786 739.415 529.762 728.621 518.223C717.821 506.687 705.478 494.031 705.54 478.224C705.57 469.429 709.873 461.582 716.369 455.764C716.569 455.588 716.77 455.412 716.974 455.242C724.826 448.511 734.928 444.991 745.262 445.384C764.461 446.412 781.225 459.315 792.867 474.621C811.606 499.248 819.817 533.818 806.698 561.852C795.159 586.509 770.55 601.15 745.433 612.921C741.926 614.565 738.426 616.16 734.933 617.704C734.91 617.71 734.884 617.727 734.861 617.733C734.693 617.807 734.525 617.881 734.367 617.957C733.646 618.275 732.925 618.593 732.21 618.907L732.541 619.124L733.574 619.792C733.216 619.576 732.862 619.365 732.504 619.148C732.397 619.083 732.285 619.021 732.179 618.955C719.843 611.553 707.335 603.723 698.813 592.167C689.975 580.17 686.421 562.984 694.245 550.3Z" fill="#C2C3F5"/>
<path id="Vector_4" d="M776.548 522.436C779.279 528.65 781.09 535.23 781.923 541.966C782.579 547.973 782.332 554.045 781.192 559.979C778.743 572.173 773.4 583.601 765.615 593.301C759.741 600.665 752.96 607.258 745.433 612.921C741.926 614.565 738.426 616.16 734.933 617.704C734.91 617.71 734.884 617.727 734.861 617.733C734.693 617.807 734.525 617.881 734.367 617.957C733.646 618.275 732.925 618.593 732.211 618.907L732.542 619.124L733.574 619.793C733.216 619.576 732.862 619.365 732.504 619.148C732.398 619.083 732.285 619.021 732.179 618.955C734.893 609.459 735.293 599.451 733.343 589.769C731.393 580.087 727.15 571.013 720.971 563.309C714.759 555.701 706.837 549.669 697.851 545.705C698.415 545.119 699.011 544.568 699.625 544.031C703.086 545.62 706.4 547.513 709.528 549.686C720.716 557.418 729.116 568.547 733.487 581.426C737.389 593.109 737.876 605.663 734.892 617.614C735.511 617.209 736.132 616.794 736.737 616.381C748.229 608.631 758.82 599.323 766.798 587.91C773.678 578.264 778.081 567.074 779.619 555.325C781.148 542.491 777.937 529.871 772.207 518.42C765.88 506.169 757.908 494.841 748.511 484.75C739.073 474.38 728.402 465.205 716.735 457.428C716.472 457.25 716.288 456.979 716.219 456.669C716.151 456.359 716.205 456.035 716.369 455.764C716.494 455.517 716.711 455.329 716.974 455.242C717.108 455.208 717.247 455.204 717.382 455.232C717.517 455.259 717.644 455.316 717.754 455.4C719.194 456.361 720.622 457.33 722.033 458.329C733.782 466.648 744.452 476.395 753.798 487.345C762.829 497.9 771.048 509.626 776.548 522.436Z" fill="white"/>
<path id="Ellipse 44_2" d="M525.042 39.2105C534.946 39.2105 542.976 31.1812 542.976 21.2765C542.976 11.3718 534.946 3.34241 525.042 3.34241C515.137 3.34241 507.108 11.3718 507.108 21.2765C507.108 31.1812 515.137 39.2105 525.042 39.2105Z" fill="#C2C3F5"/>
<path id="Ellipse 44_3" d="M748.042 279.211C754.08 279.211 758.976 274.315 758.976 268.276C758.976 262.238 754.08 257.342 748.042 257.342C742.003 257.342 737.108 262.238 737.108 268.276C737.108 274.315 742.003 279.211 748.042 279.211Z" fill="#C2C3F5"/>
<path id="Ellipse 44_4" d="M428.042 309.211C434.08 309.211 438.976 304.315 438.976 298.276C438.976 292.238 434.08 287.342 428.042 287.342C422.003 287.342 417.108 292.238 417.108 298.276C417.108 304.315 422.003 309.211 428.042 309.211Z" fill="#C2C3F5"/>
<path id="Vector_5" d="M773.17 96.635C773.67 93.0831 772.85 89.4711 770.865 86.4834C768.88 83.4957 765.868 81.3399 762.4 80.4245C758.932 79.5091 755.248 79.8978 752.047 81.5167C748.847 83.1357 746.351 85.8726 745.033 89.2088L714.116 124.653L723.188 149.99L754.281 108.575C756.309 109.225 758.456 109.422 760.57 109.152C762.683 108.883 764.712 108.153 766.513 107.015C768.313 105.876 769.843 104.357 770.993 102.564C772.143 100.77 772.886 98.7466 773.17 96.635Z" fill="#FFB7B7"/>
<path id="Vector_6" d="M645.013 234.549L747.642 125.02L733.799 103.012L605.076 211.876L645.013 234.549Z" fill="#3F3D56"/>
<path id="Vector_7" d="M622.108 168C641.99 168 658.108 151.882 658.108 132C658.108 112.118 641.99 96 622.108 96C602.225 96 586.108 112.118 586.108 132C586.108 151.882 602.225 168 622.108 168Z" fill="#2F2E41"/>
<path id="Vector_8" d="M625.001 111.663C632.748 103.808 642.122 97.7457 652.465 93.904C659.103 91.4446 666.329 89.9251 673.27 91.3218C680.21 92.7185 686.774 97.5199 688.71 104.33C690.293 109.898 688.658 115.893 686.201 121.135C683.744 126.377 680.464 131.238 678.477 136.675C676.449 142.223 675.839 148.19 676.703 154.033C677.566 159.876 679.875 165.412 683.42 170.136C686.966 174.861 691.635 178.625 697.004 181.088C702.373 183.55 708.272 184.633 714.166 184.237C707.346 185.152 701.06 188.356 694.395 190.062C687.729 191.768 679.862 191.652 674.909 186.877C669.668 181.824 669.563 173.61 669.816 166.334C670.193 155.519 670.57 144.704 670.946 133.889C671.138 128.374 671.302 122.682 669.313 117.534C667.324 112.386 662.597 107.878 657.079 107.925C652.896 107.961 649.194 110.494 645.84 112.993C642.486 115.492 638.936 118.158 634.769 118.529C630.603 118.901 625.846 115.818 626.158 111.647L625.001 111.663Z" fill="#2F2E41"/>
<path id="Vector_9" d="M485.377 373.723C481.921 374.683 478.233 374.342 475.011 372.764C471.79 371.187 469.259 368.482 467.898 365.164C466.538 361.845 466.442 358.142 467.629 354.757C468.815 351.372 471.203 348.54 474.338 346.798L505.439 311.514L531.743 317.197L494.746 353.436C495.656 355.362 496.132 357.465 496.141 359.595C496.149 361.726 495.691 363.832 494.798 365.766C493.905 367.701 492.598 369.416 490.971 370.79C489.343 372.165 487.434 373.166 485.377 373.723H485.377Z" fill="#FFB7B7"/>
<path id="Vector_10" d="M587.698 247.405L510.183 344.705L486.555 333.857L577.665 192.012L587.698 247.405Z" fill="#3F3D56"/>
<path id="Vector_11" d="M525.848 541.211L507.374 540.921L509.596 603.887H525.845L525.848 541.211Z" fill="#FFB7B7"/>
<path id="Vector_12" d="M529.99 598.582L497.989 598.581H497.988C492.579 598.581 487.392 600.73 483.568 604.554C479.743 608.378 477.594 613.565 477.594 618.974V619.637L529.989 619.639L529.99 598.582Z" fill="#2F2E41"/>
<path id="Vector_13" d="M648.165 524.511L627.984 537.467L668.352 586.032L682.026 577.253L648.165 524.511Z" fill="#FFB7B7"/>
<path id="Vector_14" d="M682.648 570.549L655.718 587.838L655.717 587.838C651.166 590.761 647.962 595.371 646.81 600.656C645.658 605.94 646.653 611.466 649.575 616.017L649.933 616.575L694.023 588.268L682.648 570.549Z" fill="#2F2E41"/>
<path id="Vector_15" d="M655.355 332.24C655.355 332.24 610.515 183.313 596.105 181.3C581.695 179.288 558.477 219.513 558.477 219.513C528.374 257.921 497.333 382.334 497.333 382.334C497.333 382.334 549.079 385.572 586.906 405.697C624.733 425.823 669.374 404.679 669.374 404.679L655.355 332.24Z" fill="#3F3D56"/>
<path id="Vector_16" opacity="0.1" d="M655.355 332.24C655.355 332.24 610.515 183.313 596.105 181.3C581.695 179.288 564.374 219.921 564.374 219.921C549.374 281.921 497.333 382.334 497.333 382.334C497.333 382.334 549.079 385.572 586.906 405.698C624.733 425.823 669.374 404.679 669.374 404.679L655.355 332.24Z" fill="black"/>
<path id="Vector_17" d="M618.567 287.682V362.517L627.374 470.921L671.374 552.921L650.374 567.921L590.374 489.921L566.643 412.472L529.374 583.921L501.374 581.921L520.82 344.21L557.721 277.3L618.567 287.682Z" fill="#2F2E41"/>
<path id="Vector_18" d="M573.358 215.3C559.358 229.3 572.358 244.3 572.358 244.3L556.358 280.3L619.358 297.3L641.374 198.921L626.374 182.921C596.374 181.921 596.358 181.3 596.358 181.3C591.101 186.444 573.358 215.3 573.358 215.3Z" fill="#FFDBF5"/>
<path id="Vector_19" d="M643.911 188.73C641.05 186.617 637.798 185.094 634.343 184.248C630.889 183.401 627.301 183.249 623.788 183.798C620.274 184.348 616.904 185.59 613.874 187.452C610.844 189.313 608.213 191.757 606.134 194.643C590.296 216.695 575.651 252.304 595.829 296.714C628.228 368.024 656.422 404.529 667.884 404.525C668.384 404.529 668.882 404.451 669.357 404.294C676.412 401.9 686.613 389.962 688.46 379.441C689.121 375.675 688.964 370.43 684.46 366.829C671.525 356.482 648.302 324.267 641.058 281.865C637.055 258.435 644.819 237.093 652.036 223.315C655.085 217.614 655.977 211.005 654.548 204.7C653.12 198.395 649.467 192.816 644.259 188.986V188.986L643.911 188.73Z" fill="#3F3D56"/>
<path id="Vector_20" d="M623.959 164.463C636.801 157.443 641.521 141.342 634.501 128.5C627.481 115.658 611.379 110.938 598.537 117.958C585.695 124.978 580.975 141.08 587.995 153.922C595.016 166.764 611.117 171.483 623.959 164.463Z" fill="#FFB7B7"/>
<path id="Vector_21" d="M573.98 139.207H612.245L612.638 133.713L614.6 139.207H620.492L621.269 128.319L625.158 139.207H636.559V138.668C636.55 131.087 633.535 123.82 628.175 118.459C622.815 113.099 615.547 110.084 607.967 110.075H602.572C594.991 110.084 587.724 113.099 582.364 118.459C577.003 123.82 573.988 131.087 573.98 138.668V139.207Z" fill="#2F2E41"/>
<path id="Vector_22" d="M630.778 158.954L647.108 153.656V114H616.263L617.027 114.762C627.652 125.373 639.468 163.019 630.778 158.954Z" fill="#2F2E41"/>
</g>
</svg>
