<svg width="514" height="466" viewBox="0 0 514 466" fill="none" xmlns="http://www.w3.org/2000/svg">
<path d="M493.603 356.397H31.6151V356.629H493.603V356.397Z" fill="#EBEBEB"/>
<path d="M138.177 365.269H115.198V365.501H138.177V365.269Z" fill="#EBEBEB"/>
<path d="M197.774 362.744H172.364V362.976H197.774V362.744Z" fill="#EBEBEB"/>
<path d="M129.353 373.928H75.661V374.16H129.353V373.928Z" fill="#EBEBEB"/>
<path d="M447.312 372.362H427.354V372.595H447.312V372.362Z" fill="#EBEBEB"/>
<path d="M255.883 364.543H230.076V364.775H255.883V364.543Z" fill="#EBEBEB"/>
<path d="M374.309 368.429H309.427V368.662H374.309V368.429Z" fill="#EBEBEB"/>
<path d="M250.597 314.83H72.1869C70.7892 314.827 69.4496 314.265 68.4622 313.268C67.4748 312.27 66.9202 310.918 66.9202 309.508V56.5351C66.9324 55.1334 67.4923 53.7932 68.4784 52.8055C69.4646 51.8178 70.7972 51.2624 72.1869 51.26H250.597C251.997 51.26 253.339 51.8207 254.328 52.8187C255.318 53.8167 255.873 55.1703 255.873 56.5817V309.508C255.873 310.919 255.318 312.273 254.328 313.271C253.339 314.269 251.997 314.83 250.597 314.83V314.83ZM72.1869 51.4464C70.8505 51.4489 69.5697 51.9861 68.6256 52.9401C67.6815 53.8942 67.1512 55.1871 67.1512 56.5351V309.508C67.1512 310.856 67.6815 312.149 68.6256 313.103C69.5697 314.057 70.8505 314.594 72.1869 314.597H250.597C251.935 314.594 253.216 314.057 254.162 313.103C255.108 312.15 255.64 310.857 255.642 309.508V56.5351C255.64 55.1863 255.108 53.8934 254.162 52.9396C253.216 51.9858 251.935 51.4489 250.597 51.4464H72.1869Z" fill="#EBEBEB"/>
<path d="M450.463 314.83H272.043C270.644 314.827 269.304 314.266 268.315 313.268C267.326 312.271 266.769 310.919 266.767 309.508V56.5351C266.782 55.1326 267.344 53.7923 268.331 52.8049C269.319 51.8174 270.652 51.2624 272.043 51.26H450.463C451.851 51.2648 453.181 51.8213 454.165 52.8087C455.149 53.7962 455.708 55.135 455.72 56.5351V309.508C455.72 310.916 455.167 312.267 454.181 313.264C453.196 314.262 451.859 314.825 450.463 314.83V314.83ZM272.043 51.4464C270.706 51.4489 269.424 51.9858 268.478 52.9396C267.533 53.8934 267 55.1863 266.998 56.5351V309.508C267 310.857 267.533 312.15 268.478 313.103C269.424 314.057 270.706 314.594 272.043 314.597H450.463C451.8 314.594 453.082 314.057 454.027 313.103C454.973 312.15 455.505 310.857 455.508 309.508V56.5351C455.505 55.1863 454.973 53.8934 454.027 52.9396C453.082 51.9858 451.8 51.4489 450.463 51.4464H272.043Z" fill="#EBEBEB"/>
<path d="M328.23 60.2258H61.0437C56.6552 60.2258 53.0975 63.8144 53.0975 68.241V234.221C53.0975 238.648 56.6552 242.236 61.0437 242.236H328.23C332.618 242.236 336.176 238.648 336.176 234.221V68.241C336.176 63.8144 332.618 60.2258 328.23 60.2258Z" fill="#EBEBEB"/>
<path d="M336.176 69.434H53.0975V216.149H336.176V69.434Z" fill="#FAFAFA"/>
<path d="M245.303 125.018C245.308 123.203 246.025 121.464 247.298 120.18C248.57 118.896 250.295 118.173 252.094 118.168H463.685C465.484 118.173 467.209 118.896 468.482 120.18C469.754 121.464 470.471 123.203 470.476 125.018V147.07H245.303V125.018Z" fill="#E6E6E6"/>
<path d="M300.224 137.806C303.061 137.806 305.361 135.486 305.361 132.624C305.361 129.762 303.061 127.442 300.224 127.442C297.387 127.442 295.087 129.762 295.087 132.624C295.087 135.486 297.387 137.806 300.224 137.806Z" fill="white"/>
<path d="M282.022 137.806C284.859 137.806 287.159 135.486 287.159 132.624C287.159 129.762 284.859 127.442 282.022 127.442C279.185 127.442 276.885 129.762 276.885 132.624C276.885 135.486 279.185 137.806 282.022 137.806Z" fill="white"/>
<path d="M263.829 137.806C266.666 137.806 268.966 135.486 268.966 132.624C268.966 129.762 266.666 127.442 263.829 127.442C260.992 127.442 258.691 129.762 258.691 132.624C258.691 135.486 260.992 137.806 263.829 137.806Z" fill="white"/>
<path d="M463.657 265.806H252.067C250.267 265.801 248.542 265.078 247.27 263.795C245.997 262.511 245.28 260.771 245.275 258.956V147.116H470.448V258.956C470.443 260.771 469.726 262.511 468.454 263.795C467.181 265.078 465.457 265.801 463.657 265.806Z" fill="#F5F5F5"/>
<path d="M215.071 163.165C215.075 161.35 215.792 159.61 217.065 158.327C218.338 157.043 220.062 156.32 221.862 156.315H433.452C435.252 156.32 436.977 157.043 438.249 158.327C439.522 159.61 440.239 161.35 440.244 163.165V185.216H215.071V163.165Z" fill="#F0F0F0"/>
<path d="M269.982 175.952C272.82 175.952 275.12 173.632 275.12 170.77C275.12 167.908 272.82 165.588 269.982 165.588C267.145 165.588 264.845 167.908 264.845 170.77C264.845 173.632 267.145 175.952 269.982 175.952Z" fill="#E6E6E6"/>
<path d="M251.78 175.952C254.617 175.952 256.917 173.632 256.917 170.77C256.917 167.908 254.617 165.588 251.78 165.588C248.943 165.588 246.643 167.908 246.643 170.77C246.643 173.632 248.943 175.952 251.78 175.952Z" fill="#E6E6E6"/>
<path d="M233.587 175.952C236.424 175.952 238.724 173.632 238.724 170.77C238.724 167.908 236.424 165.588 233.587 165.588C230.75 165.588 228.45 167.908 228.45 170.77C228.45 173.632 230.75 175.952 233.587 175.952Z" fill="#E6E6E6"/>
<path d="M433.415 303.953H221.825C220.025 303.948 218.301 303.225 217.028 301.941C215.756 300.658 215.038 298.918 215.034 297.103V185.263H440.207V297.103C440.202 298.918 439.485 300.658 438.212 301.941C436.94 303.225 435.215 303.948 433.415 303.953V303.953Z" fill="#FAFAFA"/>
<path d="M184.829 201.312C184.834 199.497 185.551 197.757 186.823 196.474C188.096 195.19 189.82 194.467 191.62 194.462H403.211C405.01 194.467 406.735 195.19 408.007 196.474C409.28 197.757 409.997 199.497 410.002 201.312V223.363H184.829V201.312Z" fill="#FAFAFA"/>
<path d="M239.741 214.099C242.578 214.099 244.878 211.779 244.878 208.917C244.878 206.055 242.578 203.735 239.741 203.735C236.903 203.735 234.603 206.055 234.603 208.917C234.603 211.779 236.903 214.099 239.741 214.099Z" fill="#F0F0F0"/>
<path d="M221.538 214.099C224.376 214.099 226.676 211.779 226.676 208.917C226.676 206.055 224.376 203.735 221.538 203.735C218.701 203.735 216.401 206.055 216.401 208.917C216.401 211.779 218.701 214.099 221.538 214.099Z" fill="#F0F0F0"/>
<path d="M203.345 214.099C206.183 214.099 208.483 211.779 208.483 208.917C208.483 206.055 206.183 203.735 203.345 203.735C200.508 203.735 198.208 206.055 198.208 208.917C198.208 211.779 200.508 214.099 203.345 214.099Z" fill="#F0F0F0"/>
<path d="M403.174 342.1H191.583C189.783 342.095 188.059 341.372 186.786 340.088C185.514 338.805 184.797 337.065 184.792 335.25V223.41H409.965V335.25C409.96 337.065 409.243 338.805 407.97 340.088C406.698 341.372 404.973 342.095 403.174 342.1V342.1Z" fill="#E6E6E6"/>
<path d="M257 398.486C367.081 398.486 456.319 393.762 456.319 387.936C456.319 382.109 367.081 377.385 257 377.385C146.919 377.385 57.6811 382.109 57.6811 387.936C57.6811 393.762 146.919 398.486 257 398.486Z" fill="#F5F5F5"/>
<path d="M196.512 76.89H187.435V77.822H196.512V76.89Z" fill="#407BFF"/>
<path d="M176.652 76.89H154.375V77.822H176.652V76.89Z" fill="#407BFF"/>
<path d="M92.8592 80.152H421.141C424.412 80.152 427.55 81.3303 429.864 83.4277C432.177 85.5251 433.477 88.3698 433.477 91.336V348.307H80.5232V91.336C80.5232 88.3698 81.8229 85.5251 84.1364 83.4277C86.4498 81.3303 89.5875 80.152 92.8592 80.152V80.152Z" fill="#407BFF"/>
<path opacity="0.8" d="M433.467 96.928H80.5232V343.964H433.467V96.928Z" fill="white"/>
<path opacity="0.4" d="M433.467 96.928H80.5232V151.236H433.467V96.928Z" fill="#407BFF"/>
<path opacity="0.4" d="M426.188 102.119H411.457V115.475H426.188V102.119Z" fill="#407BFF"/>
<path opacity="0.4" d="M404.333 102.119H389.602V115.475H404.333V102.119Z" fill="#407BFF"/>
<path opacity="0.4" d="M382.478 102.119H367.746V115.475H382.478V102.119Z" fill="#407BFF"/>
<path opacity="0.4" d="M147.302 335.054H132.571V336.396H147.302V335.054Z" fill="#407BFF"/>
<path opacity="0.4" d="M125.447 335.054H110.716V336.396H125.447V335.054Z" fill="#407BFF"/>
<path opacity="0.4" d="M103.592 335.054H88.8603V336.396H103.592V335.054Z" fill="#407BFF"/>
<path d="M221.729 127.87H217.237L216.61 129.79H212.57L217.381 118.168H221.709L226.52 129.79H222.408L221.729 127.87ZM220.907 125.363L219.499 121.16L218.09 125.345L220.907 125.363Z" fill="white"/>
<path d="M227.558 118.168H231.156V122.195C231.492 121.867 231.903 121.61 232.359 121.44C232.836 121.265 233.345 121.176 233.86 121.179C234.388 121.168 234.913 121.261 235.398 121.453C235.883 121.644 236.315 121.929 236.666 122.288C237.465 123.182 237.861 124.317 237.776 125.466C237.796 126.297 237.624 127.122 237.273 127.889C236.984 128.528 236.494 129.076 235.864 129.464C235.272 129.807 234.583 129.985 233.88 129.977C233.284 129.983 232.695 129.858 232.164 129.613C231.663 129.337 231.23 128.973 230.889 128.541V129.79H227.558V118.168ZM231.125 125.559C231.075 126.115 231.235 126.671 231.578 127.134C231.715 127.288 231.889 127.412 232.086 127.496C232.284 127.58 232.5 127.622 232.719 127.619C232.919 127.614 233.116 127.569 233.295 127.485C233.473 127.401 233.627 127.281 233.747 127.134C234.083 126.655 234.235 126.088 234.178 125.522C234.221 125.005 234.073 124.49 233.757 124.059C233.636 123.915 233.481 123.798 233.303 123.717C233.124 123.637 232.928 123.594 232.729 123.593C232.504 123.585 232.28 123.625 232.075 123.709C231.87 123.793 231.689 123.919 231.547 124.077C231.218 124.51 231.068 125.035 231.125 125.559V125.559Z" fill="white"/>
<path d="M239.041 125.606C239.022 125.014 239.141 124.426 239.389 123.878C239.637 123.331 240.008 122.837 240.48 122.428C241.002 121.995 241.613 121.661 242.278 121.443C242.943 121.226 243.649 121.129 244.356 121.16C245.133 121.11 245.912 121.217 246.639 121.471C247.366 121.726 248.022 122.122 248.56 122.633C249.349 123.499 249.758 124.599 249.709 125.722C249.66 126.845 249.155 127.912 248.293 128.719C247.759 129.15 247.136 129.482 246.461 129.695C245.785 129.907 245.07 129.997 244.356 129.958C243.054 130.011 241.774 129.648 240.737 128.933C240.191 128.534 239.755 128.026 239.46 127.449C239.166 126.872 239.023 126.241 239.041 125.606V125.606ZM242.608 125.606C242.559 126.198 242.737 126.787 243.112 127.274C243.268 127.439 243.462 127.572 243.68 127.663C243.899 127.754 244.136 127.801 244.376 127.801C244.616 127.801 244.854 127.754 245.072 127.663C245.29 127.572 245.484 127.439 245.641 127.274C246.017 126.774 246.191 126.171 246.134 125.568C246.195 125.001 246.039 124.432 245.692 123.956C245.544 123.789 245.356 123.655 245.142 123.563C244.929 123.471 244.695 123.424 244.458 123.425C244.213 123.419 243.969 123.465 243.746 123.558C243.523 123.652 243.327 123.791 243.173 123.965C242.78 124.432 242.58 125.009 242.608 125.596V125.606Z" fill="white"/>
<path d="M261.205 129.79H257.884V128.43C257.482 128.918 256.97 129.325 256.383 129.623C255.804 129.877 255.165 129.999 254.523 129.977C254.099 129.999 253.675 129.939 253.278 129.803C252.881 129.666 252.521 129.456 252.22 129.185C251.606 128.494 251.308 127.617 251.387 126.733V121.374H254.944V126.034C254.901 126.433 255.014 126.832 255.263 127.162C255.378 127.276 255.52 127.365 255.678 127.423C255.837 127.481 256.007 127.507 256.178 127.498C256.375 127.5 256.571 127.461 256.749 127.383C256.928 127.305 257.084 127.192 257.206 127.05C257.536 126.576 257.681 126.015 257.617 125.457V121.412H261.174L261.205 129.79Z" fill="white"/>
<path d="M267.66 118.168V121.374H269.614V123.732H267.66V126.752C267.635 126.996 267.674 127.242 267.773 127.47C267.838 127.56 267.929 127.632 268.036 127.678C268.143 127.724 268.262 127.743 268.38 127.731C268.756 127.713 269.127 127.643 269.48 127.526L269.747 129.753C268.938 129.921 268.11 130.008 267.28 130.014C266.611 130.052 265.942 129.947 265.327 129.706C264.905 129.504 264.574 129.174 264.391 128.774C264.15 128.117 264.049 127.425 264.093 126.733V123.77H262.777V121.412H264.093V119.865L267.66 118.168Z" fill="white"/>
<path d="M285.856 118.168H289.803V125.093C289.81 125.756 289.691 126.414 289.454 127.041C289.221 127.641 288.842 128.186 288.344 128.635C287.894 129.042 287.354 129.36 286.761 129.567C285.866 129.837 284.928 129.967 283.985 129.949C283.298 129.947 282.611 129.907 281.929 129.828C281.289 129.775 280.666 129.617 280.089 129.362C279.564 129.112 279.099 128.77 278.722 128.355C278.34 127.97 278.053 127.515 277.879 127.022C277.654 126.386 277.533 125.724 277.519 125.056V118.131H281.466V125.224C281.45 125.493 281.492 125.762 281.591 126.017C281.689 126.271 281.843 126.505 282.042 126.705C282.257 126.888 282.511 127.03 282.789 127.121C283.066 127.213 283.361 127.252 283.656 127.237C283.949 127.255 284.242 127.217 284.518 127.128C284.794 127.038 285.046 126.897 285.26 126.715C285.463 126.515 285.62 126.28 285.721 126.024C285.822 125.767 285.864 125.495 285.846 125.224L285.856 118.168Z" fill="white"/>
<path d="M291.561 127.451L295.098 127.153C295.198 127.475 295.41 127.76 295.704 127.964C296.011 128.139 296.369 128.227 296.732 128.215C297.127 128.239 297.518 128.141 297.842 127.936C297.937 127.88 298.014 127.804 298.068 127.715C298.122 127.625 298.15 127.525 298.151 127.423C298.149 127.307 298.11 127.195 298.039 127.099C297.968 127.003 297.867 126.928 297.75 126.882C297.254 126.723 296.74 126.61 296.218 126.547C295.346 126.433 294.487 126.252 293.648 126.006C293.164 125.837 292.744 125.546 292.435 125.168C292.101 124.779 291.924 124.299 291.931 123.807C291.922 123.29 292.111 122.786 292.466 122.381C292.852 121.953 293.361 121.631 293.936 121.449C294.749 121.228 295.596 121.127 296.444 121.151C297.271 121.124 298.098 121.203 298.901 121.384C299.398 121.523 299.849 121.769 300.217 122.101C300.608 122.476 300.909 122.92 301.101 123.406L297.719 123.704C297.659 123.465 297.505 123.253 297.287 123.108C296.981 122.931 296.622 122.844 296.259 122.856C295.952 122.834 295.646 122.902 295.386 123.052C295.301 123.105 295.231 123.176 295.183 123.259C295.135 123.342 295.109 123.434 295.108 123.527C295.108 123.628 295.142 123.726 295.204 123.809C295.266 123.892 295.355 123.956 295.457 123.993C295.949 124.147 296.46 124.241 296.979 124.273C297.881 124.335 298.77 124.507 299.621 124.785C300.154 124.972 300.615 125.296 300.947 125.717C301.244 126.106 301.401 126.568 301.399 127.041C301.392 127.545 301.224 128.037 300.916 128.458C300.538 128.955 300.005 129.338 299.384 129.557C298.473 129.859 297.506 129.995 296.537 129.958C295.287 130.049 294.034 129.823 292.918 129.306C292.217 128.871 291.731 128.206 291.561 127.451V127.451Z" fill="white"/>
<path d="M153.357 256.412C181.744 256.412 204.757 235.548 204.757 209.812C204.757 184.075 181.744 163.212 153.357 163.212C124.97 163.212 101.957 184.075 101.957 209.812C101.957 235.548 124.97 256.412 153.357 256.412Z" fill="#407BFF"/>
<path d="M187.791 241.028C206.808 223.786 206.808 195.833 187.791 178.592C168.774 161.351 137.941 161.351 118.924 178.592C99.9065 195.833 99.9065 223.786 118.924 241.028C137.941 258.269 168.773 258.269 187.791 241.028Z" fill="white"/>
<path d="M155.845 219.02L159.957 211.266C159.957 211.266 181.421 217.417 184.629 218.843C184.547 213.978 187.281 204.863 187.579 199.867C188.391 199.168 190.355 197.407 191.373 197.472C194.457 203.996 193.788 226.364 187.723 226.765C178.029 227.324 155.845 219.02 155.845 219.02Z" fill="#B55B52"/>
<path d="M153.172 217.808C155.649 223.074 175.994 227.762 175.994 227.762L180.106 216.429C180.106 216.429 172.354 211.098 164.305 209.374C156.071 207.594 150.438 212.03 153.172 217.808Z" fill="#407BFF"/>
<path opacity="0.2" d="M153.532 218.424C155.948 221.732 164.932 224.733 170.782 226.401C166.886 219.542 161.632 215.758 153.532 218.424Z" fill="black"/>
<path d="M187.559 200.855L184.279 197.043L190.344 193.977C191.539 195.614 192.152 197.542 192.102 199.504L187.559 200.855Z" fill="#B55B52"/>
<path d="M183.385 191.768L189.296 190.902L190.344 193.977L184.279 197.043L183.385 191.768Z" fill="#B55B52"/>
<path d="M164.799 209.756C164.799 209.756 173.084 227.837 166.587 261.529H134.205C133.825 256.608 136.59 232.637 130.731 209.448C134.624 208.761 138.563 208.306 142.522 208.088C147.524 207.827 152.539 207.827 157.541 208.088C162.784 208.526 164.799 209.756 164.799 209.756Z" fill="#407BFF"/>
<path opacity="0.2" d="M138.554 215.162C139.253 218.983 138.173 228.107 134.442 238.648C134.257 229.615 133.197 220.615 131.276 211.75V211.75C133.64 211.489 137.896 211.564 138.554 215.162Z" fill="black"/>
<path d="M144.136 195.357C145.164 199.737 145.822 205.17 142.522 208.088C142.522 208.088 144.578 212.533 153.563 212.533C161.787 212.533 157.541 208.088 157.541 208.088C152.123 206.923 152.237 200.883 153.09 197.472L144.136 195.357Z" fill="#B55B52"/>
<path d="M153.984 212.179L155.937 214.136C156.003 214.204 156.049 214.285 156.071 214.373C156.092 214.462 156.089 214.553 156.061 214.64L155.434 216.364C155.398 216.458 155.332 216.541 155.244 216.601C155.156 216.661 155.05 216.695 154.94 216.699L152.884 216.793C152.785 216.798 152.686 216.78 152.597 216.739C152.509 216.698 152.434 216.636 152.38 216.56L151.116 214.891C151.042 214.801 151.002 214.692 151.002 214.579C151.002 214.466 151.042 214.357 151.116 214.267L153.172 212.179C153.28 212.082 153.426 212.027 153.578 212.027C153.73 212.027 153.876 212.082 153.984 212.179V212.179Z" fill="white"/>
<path d="M153.563 211.75C152.566 213.264 152.014 214.984 151.959 216.746C151.959 216.746 140.651 213.148 140.99 207.873C140.99 207.873 142.563 207.016 143.56 206.317C143.56 206.317 144.033 209.644 153.563 211.75Z" fill="#263238"/>
<path d="M153.563 211.75C154.63 213.168 155.413 214.746 155.876 216.41C155.876 216.41 160.892 213.279 159.217 208.069C158.275 207.727 157.306 207.45 156.318 207.24C156.318 207.24 157.078 210.632 153.563 211.75Z" fill="#263238"/>
<path d="M154.478 216.429C154.478 216.429 157.695 237.865 157.767 241.593C157.723 245.122 157.11 248.626 155.948 251.994C155.948 251.994 153.737 248.201 153.357 241.435C152.977 234.668 153.439 220.222 153.275 216.42L154.478 216.429Z" fill="white"/>
<path opacity="0.2" d="M153.09 197.481C152.428 199.852 152.506 202.344 153.316 204.677C152.479 204.559 151.666 204.333 150.9 204.005C147.816 202.701 146.264 200.66 144.629 197.631C144.485 196.848 144.321 196.093 144.146 195.357L153.09 197.481Z" fill="black"/>
<path d="M161.612 194.406C161.246 195.06 160.739 195.64 160.121 196.112C159.503 196.585 158.786 196.939 158.014 197.155C155.958 197.705 154.837 196 155.351 194.182C155.824 192.542 157.407 190.286 159.566 190.519C160.03 190.583 160.469 190.748 160.845 191.001C161.222 191.254 161.524 191.587 161.726 191.971C161.928 192.354 162.023 192.777 162.003 193.201C161.983 193.626 161.849 194.039 161.612 194.406V194.406Z" fill="#B55B52"/>
<path opacity="0.2" d="M161.612 194.406C161.246 195.06 160.739 195.64 160.121 196.112C159.503 196.585 158.786 196.939 158.014 197.155C155.958 197.705 154.837 196 155.351 194.182C155.824 192.542 157.407 190.286 159.566 190.519C160.03 190.583 160.469 190.748 160.845 191.001C161.222 191.254 161.524 191.587 161.726 191.971C161.928 192.354 162.023 192.777 162.003 193.201C161.983 193.626 161.849 194.039 161.612 194.406V194.406Z" fill="black"/>
<path d="M155.649 190.613C157.705 192.318 161.458 182.961 157.253 180.361C153.049 177.76 151.579 181.293 151.651 183.446C151.723 185.598 152.545 188.087 155.649 190.613Z" fill="#263238"/>
<path d="M141.607 189.038C142.573 194.965 142.81 198.479 146.377 201.34C151.733 205.636 159.474 202.412 160.45 196.372C161.334 190.93 159.607 182.141 153.038 180.156C151.6 179.712 150.059 179.616 148.567 179.877C147.075 180.138 145.684 180.746 144.53 181.643C143.377 182.539 142.501 183.692 141.988 184.989C141.475 186.286 141.344 187.681 141.607 189.038V189.038Z" fill="#B55B52"/>
<path d="M141.196 194.07C142.327 194.732 143.879 196.522 146.212 193.353C146.212 192.533 143.92 191.153 143.745 189.215C143.54 186.959 142.995 184.555 140.98 183.762C136.385 181.898 135.542 185.477 135.994 187.621C136.446 189.765 137.69 191.992 141.196 194.07Z" fill="#263238"/>
<path d="M140.579 185.85C151.424 184.322 157.829 183.986 161.088 180.305C164.346 176.623 159.34 172.066 153.892 171.544C153.501 173.464 147.981 178.515 139.5 180.705C139.027 180.823 138.603 181.062 138.276 181.392C137.95 181.723 137.735 182.132 137.658 182.571C137.581 183.009 137.645 183.458 137.842 183.865C138.039 184.271 138.361 184.617 138.77 184.862C139.808 185.468 140.579 185.85 140.579 185.85Z" fill="#263238"/>
<path d="M139.315 195.785C140.302 197.002 141.78 197.816 143.427 198.05C145.575 198.348 146.346 196.531 145.483 194.797C144.712 193.232 142.666 191.2 140.63 191.694C138.595 192.188 138.112 194.285 139.315 195.785Z" fill="#B55B52"/>
<path d="M151.589 190.128C151.589 190.613 151.959 190.995 152.298 190.967C152.637 190.939 152.884 190.538 152.843 190.035C152.802 189.532 152.483 189.177 152.134 189.196C151.784 189.215 151.548 189.606 151.589 190.128Z" fill="#263238"/>
<path d="M157.551 189.727C157.603 190.212 157.921 190.585 158.261 190.566C158.6 190.547 158.847 190.137 158.805 189.634C158.764 189.131 158.435 188.767 158.096 188.795C157.757 188.823 157.51 189.243 157.551 189.727Z" fill="#263238"/>
<path d="M155.68 190.128C156.452 191.573 157.434 192.918 158.6 194.126C158.261 194.385 157.863 194.572 157.434 194.673C157.006 194.775 156.557 194.789 156.122 194.713L155.68 190.128Z" fill="#A02724"/>
<path d="M154.714 196.102C154.734 196.101 154.753 196.096 154.771 196.088C154.789 196.08 154.804 196.068 154.817 196.054C154.829 196.04 154.839 196.024 154.844 196.006C154.849 195.989 154.851 195.971 154.848 195.953C154.846 195.935 154.841 195.917 154.832 195.9C154.823 195.884 154.811 195.869 154.795 195.857C154.78 195.845 154.762 195.835 154.743 195.83C154.724 195.824 154.703 195.821 154.683 195.823C154.021 195.873 153.356 195.782 152.74 195.557C152.124 195.332 151.575 194.979 151.137 194.527C151.124 194.512 151.109 194.5 151.092 194.491C151.074 194.481 151.055 194.475 151.035 194.473C151.015 194.47 150.995 194.471 150.975 194.475C150.955 194.48 150.937 194.488 150.921 194.499C150.904 194.51 150.891 194.524 150.881 194.54C150.87 194.556 150.863 194.573 150.861 194.591C150.858 194.609 150.859 194.628 150.864 194.646C150.869 194.663 150.878 194.68 150.89 194.695C151.356 195.19 151.947 195.576 152.613 195.821C153.278 196.066 153.999 196.163 154.714 196.102V196.102Z" fill="#263238"/>
<path d="M149.625 188.432C149.673 188.431 149.719 188.419 149.76 188.398C149.802 188.377 149.836 188.347 149.862 188.311C150.058 188.006 150.332 187.748 150.661 187.56C150.991 187.371 151.365 187.258 151.753 187.229C151.794 187.231 151.835 187.224 151.873 187.211C151.911 187.197 151.946 187.177 151.975 187.15C152.004 187.124 152.026 187.093 152.041 187.058C152.056 187.024 152.063 186.987 152.062 186.95C152.062 186.873 152.028 186.8 151.968 186.746C151.909 186.691 151.828 186.661 151.743 186.661C151.252 186.687 150.776 186.822 150.356 187.054C149.937 187.287 149.587 187.609 149.338 187.994C149.315 188.025 149.3 188.061 149.293 188.098C149.286 188.135 149.288 188.173 149.297 188.209C149.307 188.246 149.325 188.28 149.349 188.31C149.374 188.341 149.405 188.366 149.44 188.385C149.466 188.404 149.496 188.417 149.528 188.425C149.559 188.433 149.593 188.436 149.625 188.432Z" fill="#263238"/>
<path d="M160.049 187.621L160.173 187.574C160.208 187.554 160.239 187.527 160.262 187.495C160.286 187.463 160.302 187.428 160.309 187.39C160.317 187.353 160.316 187.314 160.307 187.277C160.298 187.239 160.28 187.204 160.255 187.174C159.989 186.792 159.626 186.472 159.197 186.242C158.768 186.012 158.285 185.878 157.788 185.85C157.746 185.85 157.705 185.858 157.667 185.872C157.629 185.887 157.595 185.908 157.566 185.935C157.537 185.962 157.515 185.994 157.5 186.029C157.485 186.064 157.478 186.102 157.479 186.139C157.482 186.214 157.517 186.285 157.576 186.337C157.636 186.39 157.715 186.419 157.798 186.419V186.419C158.192 186.445 158.574 186.556 158.912 186.742C159.25 186.929 159.534 187.185 159.741 187.49C159.776 187.534 159.822 187.569 159.876 187.592C159.93 187.615 159.99 187.625 160.049 187.621V187.621Z" fill="#263238"/>
<path d="M127.009 217.398L135.336 221.835C135.336 221.835 124.83 240.475 125.971 243.382C127.523 247.297 129.878 255.899 132.633 260.158C132.365 261.09 130.823 263.355 129.919 263.775C123.298 259.748 116.051 246.561 116.071 242.795C116.164 234.249 127.009 217.398 127.009 217.398Z" fill="#B55B52"/>
<path d="M130.731 209.448C124.501 210.269 117.87 229.952 117.87 229.952L132.612 234.212C135.24 229.743 137.517 225.112 139.428 220.353C142.162 213.083 137.413 208.563 130.731 209.448Z" fill="#407BFF"/>
<path d="M131.121 259.413L137.402 259.003L134.236 265.284C134.236 265.284 128.726 265.48 127.719 261.668L131.121 259.413Z" fill="#B55B52"/>
<path d="M142.584 261.892L139.397 267.456L134.236 265.284L137.402 259.003L142.584 261.892Z" fill="#B55B52"/>
<path d="M360.643 334.998C389.03 334.998 412.043 314.135 412.043 288.398C412.043 262.662 389.03 241.798 360.643 241.798C332.256 241.798 309.243 262.662 309.243 288.398C309.243 314.135 332.256 334.998 360.643 334.998Z" fill="#407BFF"/>
<path d="M360.643 332.547C387.537 332.547 409.339 312.781 409.339 288.398C409.339 264.015 387.537 244.249 360.643 244.249C333.749 244.249 311.947 264.015 311.947 288.398C311.947 312.781 333.749 332.547 360.643 332.547Z" fill="white"/>
<path d="M358.402 254.846C351.093 254.25 346.539 264.446 348.06 280.01C357.312 284.773 367.911 280.01 376.392 283.841C384.236 272.964 382.149 248.434 358.402 254.846Z" fill="#263238"/>
<path d="M346.991 299.899C345.941 303.435 344.462 306.854 342.581 310.095C341.568 311.868 340.303 313.513 338.819 314.988C338.383 315.412 337.912 315.805 337.41 316.162C336.622 316.779 335.68 317.211 334.665 317.421C333.884 317.565 333.076 317.533 332.311 317.327C331.631 317.14 331.004 316.822 330.471 316.395C329.801 315.848 329.256 315.186 328.867 314.447C328.359 313.457 327.983 312.415 327.747 311.344C327.525 310.421 327.361 309.488 327.254 308.548C327.027 306.684 326.925 304.95 326.894 303.18C326.837 299.678 327.012 296.177 327.418 292.695L331.201 292.76C331.53 296.115 331.91 299.508 332.394 302.807C332.651 304.456 332.938 306.097 333.308 307.663C333.493 308.436 333.709 309.2 333.936 309.899C334.121 310.504 334.386 311.086 334.727 311.633C334.84 311.801 334.984 311.894 334.809 311.717C334.632 311.578 334.426 311.474 334.203 311.409C333.893 311.323 333.566 311.303 333.247 311.353C332.784 311.428 332.753 311.549 332.938 311.353C333.155 311.154 333.357 310.942 333.545 310.719C334.482 309.558 335.279 308.308 335.92 306.991C336.669 305.555 337.335 304.083 337.914 302.583C338.531 301.083 339.106 299.47 339.61 298.016L346.991 299.899Z" fill="#FFB573"/>
<path d="M341.913 290.924C338.829 291.641 336.67 303.142 336.67 303.142L348.461 310.412C348.461 310.412 353.313 296.777 350.939 293.701C348.564 290.626 346.436 289.852 341.913 290.924Z" fill="#263238"/>
<path opacity="0.2" d="M342.19 293.496L339.816 305.09L344.596 308.026L342.19 293.496Z" fill="black"/>
<path d="M331.366 293.72L332.928 286.571L326.657 288.221C326.657 288.221 326.04 293.17 328.569 294.801L331.366 293.72Z" fill="#FFB573"/>
<path d="M332.301 283.431L327.12 285.378L326.657 288.221L332.928 286.571L332.301 283.431Z" fill="#FFB573"/>
<path d="M341.913 290.924C341.913 290.924 338.346 292.07 345.49 331.867H375.868C375.364 320.683 375.343 313.739 381.254 290.728C377 289.935 372.689 289.421 368.353 289.19C363.76 288.892 359.15 288.892 354.557 289.19C348.636 289.684 341.913 290.924 341.913 290.924Z" fill="#263238"/>
<path opacity="0.2" d="M378.756 299.843C376.001 300.458 373.452 303.189 373.76 308.231C373.932 310.512 374.812 312.703 376.299 314.55C376.783 310.692 377.595 306.209 378.89 300.486L378.756 299.843Z" fill="black"/>
<path d="M356.161 298.016C356.161 298.016 361.136 301.744 361.136 305.687C365.248 302.937 370.851 295.435 371.416 290.672C371.436 290.479 371.412 290.284 371.347 290.1C371.281 289.915 371.175 289.745 371.035 289.599C370.895 289.452 370.723 289.333 370.531 289.249C370.338 289.164 370.129 289.116 369.916 289.106C369.543 289.084 369.172 289.04 368.805 288.976C368.65 288.946 368.49 288.949 368.337 288.985C368.183 289.02 368.041 289.087 367.921 289.181L356.161 298.016Z" fill="#FAFAFA"/>
<path d="M356.161 298.016C354.805 298.927 353.665 300.075 352.809 301.392C351.952 302.71 351.396 304.17 351.175 305.687C346.981 302.891 348.718 294.288 351.052 290.225C351.235 289.908 351.502 289.637 351.828 289.435C352.154 289.233 352.53 289.108 352.923 289.069C353.529 289.004 354.002 288.929 354.31 288.873C354.366 288.863 354.423 288.863 354.479 288.873C354.535 288.883 354.587 288.904 354.634 288.934C354.68 288.964 354.719 289.002 354.748 289.046C354.778 289.09 354.797 289.139 354.804 289.19L356.161 298.016Z" fill="#FAFAFA"/>
<path d="M366.996 275.108C366.132 279.134 365.259 286.506 368.363 289.19C364.997 292.847 360.85 295.849 356.171 298.016C350.003 293.552 354.567 289.19 354.567 289.19C359.522 288.119 359.389 284.791 358.525 281.66L366.996 275.108Z" fill="#FFB573"/>
<path opacity="0.2" d="M363.532 277.783L358.525 281.66C358.735 282.387 358.876 283.129 358.947 283.878C360.838 283.636 363.809 282.172 364.22 280.308C364.227 279.428 363.99 278.559 363.532 277.783V277.783Z" fill="black"/>
<path d="M374.428 268.64C372.372 275.108 371.663 277.885 367.181 280.523C360.448 284.474 352.131 280.774 352.008 273.878C351.895 267.67 355.277 258.136 362.997 256.952C364.698 256.684 366.446 256.815 368.076 257.332C369.705 257.849 371.162 258.735 372.307 259.906C373.453 261.077 374.249 262.494 374.62 264.023C374.991 265.552 374.925 267.141 374.428 268.64V268.64Z" fill="#FFB573"/>
<path d="M368.949 262.61C370.203 269.068 370.687 271.566 373.205 273.234C375.724 274.903 378.068 267.242 376.207 264.297C374.346 261.351 368.949 262.61 368.949 262.61Z" fill="#263238"/>
<path d="M357.107 256.552C355.595 258.173 358.7 261.566 361.712 262.675C361.527 262.319 361.392 261.943 361.311 261.557C363.486 262.905 365.93 263.854 368.507 264.353C368.217 264.019 368.022 263.625 367.942 263.206C367.942 262.889 375.364 267.344 376.443 264.138C377.523 260.932 373.842 256.738 368.219 255.396C363.429 254.306 358.967 254.548 357.107 256.552Z" fill="#263238"/>
<path d="M362.463 268.062C362.339 268.593 361.918 268.994 361.527 268.882C361.136 268.77 360.941 268.313 361.075 267.773C361.208 267.232 361.62 266.841 362.01 266.953C362.401 267.065 362.596 267.484 362.463 268.062Z" fill="#263238"/>
<path d="M355.811 266.72C355.678 267.251 355.256 267.652 354.876 267.54C354.496 267.428 354.28 266.971 354.413 266.431C354.547 265.89 354.958 265.499 355.349 265.611C355.739 265.723 355.935 266.179 355.811 266.72Z" fill="#263238"/>
<path d="M355.513 265.676L354.187 265.014C354.187 265.014 354.66 266.161 355.513 265.676Z" fill="#263238"/>
<path d="M357.621 268.09C356.799 269.201 355.813 270.204 354.691 271.072C354.947 271.334 355.265 271.54 355.621 271.675C355.977 271.811 356.361 271.872 356.747 271.855L357.621 268.09Z" fill="#ED893E"/>
<path d="M359.399 274.595C359.102 274.574 358.807 274.537 358.515 274.483C358.469 274.472 358.43 274.446 358.405 274.41C358.38 274.373 358.372 274.33 358.381 274.288C358.386 274.267 358.396 274.247 358.409 274.229C358.423 274.211 358.44 274.196 358.461 274.185C358.481 274.174 358.503 274.166 358.527 274.163C358.55 274.16 358.574 274.161 358.597 274.166C359.326 274.327 360.085 274.331 360.816 274.177C361.546 274.024 362.226 273.717 362.802 273.281C362.836 273.251 362.882 273.234 362.93 273.234C362.978 273.234 363.024 273.251 363.059 273.281C363.089 273.312 363.106 273.352 363.106 273.393C363.106 273.434 363.089 273.474 363.059 273.505C362.558 273.897 361.977 274.195 361.349 274.382C360.721 274.569 360.058 274.642 359.399 274.595V274.595Z" fill="#263238"/>
<path d="M374.901 275.098C374.096 276.172 372.854 276.913 371.447 277.158C369.576 277.475 368.805 275.919 369.473 274.362C370.07 272.992 371.756 271.184 373.585 271.566C373.984 271.655 374.351 271.833 374.653 272.084C374.955 272.336 375.182 272.652 375.313 273.005C375.445 273.357 375.476 273.733 375.404 274.099C375.332 274.465 375.159 274.809 374.901 275.098Z" fill="#FFB573"/>
<path d="M365.732 266.888C365.657 266.88 365.587 266.85 365.533 266.803C365.48 266.756 365.444 266.694 365.433 266.627C365.257 266.127 364.969 265.665 364.587 265.271C364.205 264.876 363.737 264.557 363.213 264.334C363.164 264.32 363.118 264.297 363.08 264.267C363.041 264.236 363.011 264.198 362.989 264.155C362.968 264.113 362.958 264.067 362.958 264.02C362.958 263.974 362.969 263.928 362.991 263.885C363.012 263.843 363.044 263.805 363.082 263.775C363.121 263.745 363.167 263.722 363.216 263.709C363.265 263.696 363.317 263.692 363.368 263.699C363.419 263.705 363.468 263.722 363.511 263.747C364.142 264.016 364.701 264.405 365.151 264.888C365.602 265.37 365.933 265.934 366.122 266.543C366.138 266.625 366.117 266.71 366.066 266.779C366.014 266.849 365.935 266.898 365.845 266.915L365.732 266.888Z" fill="#263238"/>
<path d="M354.496 262.442C354.433 262.444 354.371 262.431 354.315 262.405C354.259 262.379 354.212 262.34 354.177 262.293C354.126 262.221 354.108 262.134 354.127 262.05C354.147 261.966 354.201 261.893 354.28 261.845C354.743 261.556 355.275 261.371 355.833 261.306C356.391 261.241 356.958 261.298 357.487 261.473C357.531 261.489 357.571 261.513 357.604 261.544C357.638 261.574 357.664 261.611 357.681 261.651C357.699 261.691 357.707 261.734 357.705 261.777C357.704 261.82 357.692 261.862 357.672 261.901C357.653 261.939 357.626 261.973 357.593 262.002C357.559 262.031 357.52 262.053 357.477 262.067C357.434 262.082 357.388 262.089 357.342 262.088C357.296 262.086 357.251 262.077 357.209 262.06C356.787 261.931 356.338 261.894 355.897 261.95C355.456 262.007 355.036 262.156 354.67 262.386C354.618 262.418 354.558 262.437 354.496 262.442V262.442Z" fill="#263238"/>
<path d="M362.164 267.018L360.849 266.356C360.849 266.356 361.321 267.484 362.164 267.018Z" fill="#263238"/>
<path d="M376.33 330.254L377.101 332.715C377.214 332.91 376.957 333.106 376.608 333.106H345.336C345.058 333.106 344.832 332.976 344.822 332.827L344.544 330.357C344.544 330.189 344.76 330.04 345.058 330.04H375.837C375.933 330.033 376.029 330.049 376.115 330.087C376.202 330.124 376.276 330.182 376.33 330.254V330.254Z" fill="#407BFF"/>
<path opacity="0.2" d="M376.33 330.254L377.101 332.715C377.214 332.91 376.957 333.106 376.608 333.106H345.336C345.058 333.106 344.832 332.976 344.822 332.827L344.544 330.357C344.544 330.189 344.76 330.04 345.058 330.04H375.837C375.933 330.033 376.029 330.049 376.115 330.087C376.202 330.124 376.276 330.182 376.33 330.254V330.254Z" fill="black"/>
<path d="M372.136 333.367H372.958C373.123 333.367 373.246 333.293 373.236 333.199L372.845 329.993C372.845 329.9 372.691 329.825 372.527 329.825H371.704C371.54 329.825 371.416 329.9 371.427 329.993L371.817 333.199C371.786 333.293 371.93 333.367 372.136 333.367Z" fill="#407BFF"/>
<path opacity="0.4" d="M372.136 333.367H372.958C373.123 333.367 373.246 333.293 373.236 333.199L372.845 329.993C372.845 329.9 372.691 329.825 372.527 329.825H371.704C371.54 329.825 371.416 329.9 371.427 329.993L371.817 333.199C371.786 333.293 371.93 333.367 372.136 333.367Z" fill="black"/>
<path d="M347.649 333.367H348.471C348.636 333.367 348.77 333.293 348.759 333.199L348.369 329.993C348.369 329.9 348.214 329.825 348.05 329.825H347.228C347.063 329.825 346.94 329.9 346.95 329.993L347.33 333.199C347.341 333.293 347.464 333.367 347.649 333.367Z" fill="#407BFF"/>
<path opacity="0.4" d="M347.649 333.367H348.471C348.636 333.367 348.77 333.293 348.759 333.199L348.369 329.993C348.369 329.9 348.214 329.825 348.05 329.825H347.228C347.063 329.825 346.94 329.9 346.95 329.993L347.33 333.199C347.341 333.293 347.464 333.367 347.649 333.367Z" fill="black"/>
<path d="M359.8 333.367H360.622C360.787 333.367 360.91 333.293 360.9 333.199L360.52 329.993C360.52 329.9 360.365 329.825 360.201 329.825H359.379C359.214 329.825 359.08 329.9 359.091 329.993L359.481 333.199C359.512 333.293 359.656 333.367 359.8 333.367Z" fill="#407BFF"/>
<path opacity="0.4" d="M359.8 333.367H360.622C360.787 333.367 360.91 333.293 360.9 333.199L360.52 329.993C360.52 329.9 360.365 329.825 360.201 329.825H359.379C359.214 329.825 359.08 329.9 359.091 329.993L359.481 333.199C359.512 333.293 359.656 333.367 359.8 333.367Z" fill="black"/>
<path d="M357.61 337.384L350.24 334.392L352.296 341.019C352.296 341.019 356.983 341.951 359.019 339.854L357.61 337.384Z" fill="#FFB573"/>
<path d="M384.801 298.902C385.14 301.232 385.407 303.562 385.716 305.892L386.497 312.891C386.775 315.221 386.97 317.551 387.196 319.89L387.556 323.404L387.638 324.28C387.638 324.373 387.638 324.737 387.69 324.988C387.705 325.259 387.705 325.529 387.69 325.799C387.565 326.801 387.216 327.768 386.662 328.642C385.769 329.99 384.588 331.163 383.187 332.09C382.012 332.891 380.767 333.605 379.466 334.225C377.032 335.358 374.506 336.321 371.91 337.104C366.882 338.633 361.725 339.787 356.49 340.553L355.647 337.207C358.042 336.489 360.489 335.753 362.843 334.933C365.197 334.113 367.582 333.302 369.854 332.361C372.093 331.472 374.263 330.447 376.351 329.294C377.308 328.761 378.218 328.163 379.075 327.505C379.743 327.014 380.298 326.409 380.71 325.725C380.799 325.575 380.852 325.41 380.864 325.24L380.689 324.131L380.144 320.645C379.784 318.325 379.383 315.985 379.116 313.674L378.14 306.693C377.862 304.354 377.533 302.033 377.297 299.694L384.801 298.902Z" fill="#FFB573"/>
<path d="M381.254 290.728C384.338 291.567 387.957 301.073 387.957 301.073L377.276 311.018C377.276 311.018 371.807 300.766 373.092 297.233C374.449 293.515 377.78 289.777 381.254 290.728Z" fill="#263238"/>
<path d="M344.133 335.753L346.22 341.215L352.337 341L350.229 334.374L344.133 335.753Z" fill="#FFB573"/>
<path d="M356.192 205.357H221.215C220.032 205.357 218.897 204.931 218.061 204.172C217.224 203.414 216.754 202.385 216.754 201.312V201.312C216.754 200.781 216.869 200.256 217.094 199.765C217.318 199.275 217.647 198.83 218.061 198.455C218.476 198.08 218.968 197.783 219.509 197.581C220.05 197.379 220.63 197.275 221.215 197.276H356.192C357.372 197.276 358.504 197.702 359.339 198.458C360.174 199.215 360.643 200.242 360.643 201.312V201.312C360.644 201.843 360.53 202.369 360.307 202.859C360.084 203.35 359.756 203.796 359.343 204.172C358.929 204.547 358.438 204.845 357.897 205.049C357.357 205.252 356.777 205.357 356.192 205.357V205.357Z" fill="white"/>
<path d="M324.848 222.347H221.215C220.63 222.348 220.05 222.245 219.509 222.043C218.968 221.84 218.476 221.543 218.061 221.169C217.647 220.794 217.318 220.348 217.094 219.858C216.869 219.368 216.754 218.842 216.754 218.312C216.754 217.239 217.224 216.21 218.061 215.452C218.897 214.693 220.032 214.267 221.215 214.267H324.848C326.031 214.267 327.166 214.693 328.003 215.452C328.839 216.21 329.31 217.239 329.31 218.312V218.312C329.31 218.842 329.194 219.368 328.97 219.858C328.745 220.348 328.417 220.794 328.002 221.169C327.588 221.543 327.096 221.84 326.555 222.043C326.013 222.245 325.433 222.348 324.848 222.347Z" fill="white"/>
<path d="M241.292 283.943H292.785C293.968 283.943 295.103 283.517 295.939 282.758C296.776 282 297.246 280.971 297.246 279.898V279.898C297.246 279.368 297.131 278.842 296.906 278.352C296.682 277.862 296.353 277.416 295.939 277.041C295.524 276.667 295.032 276.369 294.491 276.167C293.95 275.965 293.37 275.861 292.785 275.863H241.292C240.112 275.863 238.979 276.288 238.145 277.045C237.31 277.802 236.841 278.828 236.841 279.898V279.898C236.84 280.429 236.954 280.955 237.177 281.445C237.4 281.936 237.728 282.382 238.141 282.758C238.554 283.134 239.046 283.432 239.586 283.635C240.127 283.838 240.707 283.943 241.292 283.943V283.943Z" fill="white"/>
<path d="M184.074 283.943H219.601C220.187 283.943 220.766 283.838 221.307 283.635C221.848 283.432 222.339 283.134 222.753 282.758C223.166 282.382 223.494 281.936 223.717 281.445C223.94 280.955 224.054 280.429 224.053 279.898V279.898C224.053 278.828 223.584 277.801 222.749 277.045C221.914 276.288 220.782 275.863 219.601 275.863H184.074C182.893 275.863 181.761 276.288 180.926 277.045C180.091 277.801 179.622 278.828 179.622 279.898V279.898C179.621 280.429 179.735 280.955 179.958 281.445C180.181 281.936 180.509 282.382 180.923 282.758C181.336 283.134 181.827 283.432 182.368 283.635C182.909 283.838 183.488 283.943 184.074 283.943V283.943Z" fill="white"/>
<path d="M157.808 300.933H292.785C293.37 300.935 293.95 300.831 294.491 300.629C295.032 300.427 295.524 300.13 295.939 299.755C296.353 299.38 296.682 298.935 296.906 298.444C297.131 297.954 297.246 297.429 297.246 296.898V296.898C297.246 295.825 296.776 294.796 295.939 294.038C295.103 293.279 293.968 292.853 292.785 292.853H157.808C157.223 292.853 156.643 292.958 156.102 293.161C155.562 293.365 155.071 293.663 154.657 294.038C154.244 294.414 153.916 294.86 153.693 295.351C153.47 295.841 153.356 296.367 153.357 296.898C153.357 297.968 153.826 298.995 154.661 299.751C155.496 300.508 156.628 300.933 157.808 300.933V300.933Z" fill="white"/>
<path d="M102.625 88.54C102.625 89.3091 102.374 90.0608 101.902 90.7001C101.431 91.3395 100.76 91.8376 99.9766 92.1315C99.1927 92.4254 98.3302 92.5018 97.4984 92.3511C96.6666 92.2003 95.9027 91.8293 95.3036 91.2848C94.7045 90.7403 94.2971 90.047 94.1328 89.2925C93.9686 88.538 94.055 87.7562 94.381 87.0462C94.707 86.3363 95.2581 85.7299 95.9644 85.304C96.6707 84.8781 97.5005 84.6517 98.3488 84.6536C99.4839 84.656 100.572 85.0666 101.373 85.7952C102.175 86.5237 102.625 87.5109 102.625 88.54V88.54Z" fill="white"/>
<path d="M112.916 92.4264C115.283 92.4264 117.202 90.6864 117.202 88.54C117.202 86.3936 115.283 84.6536 112.916 84.6536C110.548 84.6536 108.629 86.3936 108.629 88.54C108.629 90.6864 110.548 92.4264 112.916 92.4264Z" fill="white"/>
<path d="M127.482 92.4264C129.85 92.4264 131.769 90.6864 131.769 88.54C131.769 86.3936 129.85 84.6536 127.482 84.6536C125.115 84.6536 123.196 86.3936 123.196 88.54C123.196 90.6864 125.115 92.4264 127.482 92.4264Z" fill="white"/>
</svg>
