<svg width="500" height="500" viewBox="0 0 500 500" fill="none" xmlns="http://www.w3.org/2000/svg">
<path d="M356 183.29C350.682 190.424 343.368 195.822 334.983 198.8C326.598 201.778 317.518 202.204 308.891 200.023C300.265 197.842 292.478 193.152 286.516 186.547C280.554 179.941 276.684 171.716 275.395 162.912C274.107 154.107 275.458 145.118 279.277 137.081C283.096 129.044 289.212 122.32 296.852 117.758C304.492 113.197 313.313 111.003 322.2 111.453C331.087 111.904 339.641 114.979 346.78 120.29H346.83C351.571 123.823 355.569 128.256 358.595 133.335C361.622 138.414 363.618 144.039 364.47 149.89C365.321 155.741 365.012 161.702 363.558 167.433C362.105 173.164 359.537 178.552 356 183.29V183.29Z" fill="#F0F0F0"/>
<path d="M347.41 176.88C343.355 182.322 337.778 186.44 331.383 188.712C324.988 190.984 318.062 191.309 311.483 189.644C304.903 187.98 298.965 184.402 294.419 179.363C289.874 174.323 286.925 168.049 285.945 161.333C284.966 154.617 286 147.762 288.917 141.634C291.835 135.507 296.504 130.382 302.334 126.908C308.164 123.434 314.893 121.767 321.671 122.118C328.449 122.469 334.97 124.822 340.41 128.88V128.88C344.024 131.57 347.071 134.947 349.379 138.816C351.687 142.685 353.209 146.971 353.859 151.429C354.51 155.887 354.275 160.429 353.168 164.796C352.061 169.164 350.105 173.27 347.41 176.88V176.88Z" fill="#F5F5F5"/>
<path d="M348.05 176C347.88 175.89 348.66 174.59 349.79 172.16C351.383 168.746 352.439 165.106 352.92 161.37C353.23 158.808 353.26 156.219 353.01 153.65C352.716 150.716 352.044 147.832 351.01 145.07C349.881 142.021 348.3 139.159 346.32 136.58C345.289 135.207 344.148 133.92 342.91 132.73C341.631 131.512 340.267 130.386 338.83 129.36C337.37 128.363 335.843 127.468 334.26 126.68C332.719 125.926 331.12 125.294 329.48 124.79C327.899 124.291 326.281 123.919 324.64 123.68C323.069 123.429 321.481 123.301 319.89 123.3C316.942 123.252 314.001 123.588 311.14 124.3C308.64 124.942 306.219 125.858 303.92 127.03C300.575 128.762 297.519 131.002 294.86 133.67C292.96 135.57 292.02 136.75 291.86 136.67C291.7 136.59 292.39 135.2 294.11 133.03C296.593 129.97 299.62 127.397 303.04 125.44C308.169 122.49 313.974 120.919 319.89 120.88C323.39 120.84 326.876 121.329 330.23 122.33C332.007 122.86 333.739 123.528 335.41 124.33C337.121 125.169 338.769 126.131 340.34 127.21C341.891 128.321 343.361 129.541 344.74 130.86C346.067 132.15 347.288 133.544 348.39 135.03C349.464 136.458 350.417 137.974 351.24 139.56C354.837 146.327 356.086 154.097 354.79 161.65C354.124 165.535 352.747 169.264 350.73 172.65C349.25 175 348.17 176.1 348.05 176Z" fill="#E0E0E0"/>
<path d="M310.79 175.06L307.28 179.89L303 176.76L306.41 172.05C302.33 168.69 299.19 164.38 298.17 160.8L304.36 157.25C305.584 160.78 307.707 163.931 310.52 166.39L315.75 159.18C311.8 154.54 307.6 149.05 312.08 142.88C315.4 138.3 321.58 136.78 328.97 140.95L332.45 136.16L336.77 139.29L333.31 144C336.277 146.415 338.628 149.499 340.17 153L334.17 156.75C332.98 154.11 331.281 151.732 329.17 149.75L323.85 157C327.85 161.6 331.94 167 327.52 173.11C324.27 177.65 318.16 179.15 310.79 175.06ZM320.31 152.83L324.76 146.7C322.1 145.55 320.28 146.15 319.25 147.58C318.22 149.01 318.85 150.85 320.31 152.83ZM320.19 168.63C321.29 167.12 320.63 165.39 319.25 163.39L314.92 169.39C317.43 170.45 319.19 170 320.19 168.63V168.63Z" fill="#E0E0E0"/>
<path d="M194.91 249.84C196.404 260.005 194.85 270.384 190.444 279.666C186.038 288.947 178.978 296.714 170.158 301.982C161.338 307.251 151.153 309.786 140.893 309.266C130.632 308.746 120.755 305.194 112.513 299.06C104.271 292.927 98.0331 284.486 94.5884 274.807C91.1437 265.128 90.647 254.644 93.1612 244.682C95.6753 234.721 101.087 225.728 108.713 218.843C116.338 211.957 125.834 207.488 136 206H136.1C142.841 205.013 149.711 205.363 156.317 207.031C162.923 208.699 169.136 211.652 174.601 215.721C180.066 219.79 184.676 224.896 188.167 230.747C191.659 236.597 193.963 243.078 194.95 249.82L194.91 249.84Z" fill="#F0F0F0"/>
<path d="M182.68 251.61C183.824 259.354 182.646 267.264 179.295 274.338C175.944 281.413 170.57 287.335 163.854 291.356C157.137 295.376 149.379 297.315 141.56 296.926C133.742 296.538 126.214 293.839 119.929 289.172C113.644 284.505 108.884 278.08 106.251 270.708C103.618 263.335 103.23 255.348 105.137 247.756C107.043 240.163 111.158 233.307 116.962 228.053C122.765 222.799 129.996 219.384 137.74 218.24H137.83C148.202 216.721 158.753 219.382 167.163 225.64C175.574 231.897 181.155 241.239 182.68 251.61V251.61Z" fill="#F5F5F5"/>
<path d="M182.49 250.39C182.25 250.39 181.84 248.74 180.77 245.83C179.28 241.747 177.168 237.919 174.51 234.48C172.673 232.138 170.587 230.002 168.29 228.11C165.647 225.967 162.74 224.172 159.64 222.77C157.968 222.009 156.244 221.371 154.48 220.86C152.647 220.318 150.775 219.92 148.88 219.67C146.919 219.402 144.939 219.288 142.96 219.33C140.922 219.378 138.89 219.572 136.88 219.91C134.877 220.288 132.903 220.802 130.97 221.45C129.095 222.099 127.273 222.891 125.52 223.82C123.829 224.695 122.208 225.698 120.67 226.82C119.189 227.903 117.792 229.097 116.49 230.39C114.061 232.775 111.95 235.464 110.21 238.39C108.697 240.95 107.473 243.67 106.56 246.5C105.242 250.643 104.567 254.963 104.56 259.31C104.56 262.41 104.76 264.14 104.56 264.18C104.36 264.22 103.79 262.55 103.42 259.37C102.95 254.851 103.32 250.284 104.51 245.9C106.283 239.31 109.728 233.289 114.51 228.42C115.881 227.002 117.363 225.695 118.94 224.51C122.273 221.966 125.985 219.961 129.94 218.57C132.02 217.849 134.153 217.29 136.32 216.9C138.488 216.53 140.681 216.32 142.88 216.27C145.018 216.25 147.154 216.39 149.27 216.69C151.302 216.988 153.308 217.442 155.27 218.05C157.157 218.621 158.996 219.34 160.77 220.2C164.055 221.783 167.113 223.802 169.86 226.2C172.24 228.271 174.362 230.621 176.18 233.2C178.815 236.903 180.738 241.064 181.85 245.47C182.64 248.59 182.66 250.36 182.49 250.39Z" fill="#E0E0E0"/>
<path d="M151.33 280L152.42 286.81L146.35 287.81L145.29 281.19C139.21 281.79 133.13 280.83 129.37 278.75L131.53 270.8C135.409 272.667 139.704 273.5 144 273.22L142.37 263.06C135.37 262.51 127.47 261.46 126.08 252.77C125.08 246.33 128.84 240.05 138.27 237.42L137.19 230.67L143.27 229.67L144.33 236.29C148.715 235.832 153.145 236.418 157.26 238L155.42 246C152.295 244.791 148.959 244.22 145.61 244.32L147.27 254.66C154.27 255.16 162.04 256.22 163.41 264.79C164.44 271.13 160.69 277.34 151.33 280ZM141 254.13L139.61 245.5C136.51 246.74 135.51 248.71 135.83 250.72C136.15 252.73 138.14 253.71 141 254.13ZM153.8 267.13C153.45 265 151.51 264.13 148.8 263.63L150.14 272.02C153 270.84 154.07 269.02 153.76 267.11L153.8 267.13Z" fill="#E0E0E0"/>
<path d="M300.06 69.44C299.144 74.4316 296.769 79.0396 293.234 82.6812C289.699 86.3228 285.164 88.8345 280.202 89.8986C275.24 90.9628 270.073 90.5316 265.356 88.6597C260.639 86.7877 256.583 83.559 253.701 79.3819C250.819 75.2048 249.24 70.2668 249.164 65.1924C249.088 60.118 250.519 55.1351 253.275 50.8737C256.031 46.6123 259.989 43.2639 264.648 41.2519C269.307 39.2399 274.458 38.6546 279.45 39.57H279.51C282.819 40.1788 285.976 41.4338 288.8 43.2632C291.624 45.0926 294.06 47.4605 295.968 50.2317C297.877 53.0029 299.22 56.123 299.923 59.4137C300.625 62.7044 300.671 66.1012 300.06 69.41V69.44Z" fill="#F0F0F0"/>
<path d="M294.06 68.32C293.362 72.1229 291.551 75.6334 288.858 78.4074C286.165 81.1815 282.709 83.0946 278.928 83.9049C275.148 84.7151 271.212 84.3861 267.618 82.9594C264.024 81.5328 260.934 79.0725 258.739 75.8898C256.543 72.707 255.341 68.9448 255.284 65.0787C255.226 61.2126 256.317 57.4163 258.417 54.1699C260.517 50.9235 263.533 48.3728 267.083 46.8402C270.632 45.3077 274.557 44.8622 278.36 45.56V45.56C280.886 46.0222 283.296 46.9777 285.453 48.372C287.609 49.7663 289.469 51.572 290.928 53.6858C292.386 55.7996 293.413 58.1801 293.95 60.6911C294.488 63.2022 294.525 65.7945 294.06 68.32V68.32Z" fill="#F5F5F5"/>
<path d="M294.16 67.72C294.057 66.921 294.033 66.1137 294.09 65.31C294.049 63.1636 293.681 61.0359 293 59C292.517 57.6019 291.884 56.2606 291.11 55C290.212 53.5794 289.137 52.2789 287.91 51.13C287.253 50.5025 286.547 49.9274 285.8 49.41C285.018 48.8708 284.192 48.3991 283.33 48C282.457 47.5601 281.551 47.189 280.62 46.89C279.658 46.5895 278.675 46.3589 277.68 46.2C276.687 46.0518 275.684 45.9783 274.68 45.98C273.702 45.98 272.725 46.0603 271.76 46.22C270.827 46.3619 269.908 46.5793 269.01 46.87C268.142 47.1381 267.297 47.4724 266.48 47.87C263.623 49.248 261.151 51.3088 259.28 53.87C257.989 55.595 256.977 57.5116 256.28 59.55C256.089 60.3311 255.821 61.0915 255.48 61.82C255.379 61.0022 255.461 60.1722 255.72 59.39C256.211 57.1985 257.11 55.119 258.37 53.26C259.226 51.9681 260.233 50.7831 261.37 49.73C262.703 48.5368 264.189 47.5279 265.79 46.73C266.657 46.2854 267.556 45.9077 268.48 45.6C269.46 45.2783 270.463 45.031 271.48 44.86C272.521 44.6816 273.574 44.588 274.63 44.58C276.81 44.5612 278.979 44.899 281.05 45.58C282.062 45.8738 283.048 46.2483 284 46.7C285.773 47.6114 287.4 48.7808 288.83 50.17C291.239 52.5331 293.016 55.4624 294 58.69C294.641 60.8411 294.879 63.0924 294.7 65.33C294.692 66.156 294.508 66.9709 294.16 67.72V67.72Z" fill="#E0E0E0"/>
<path d="M274.88 76.62L274.3 80L271.3 79.49L271.86 76.22C269.21 75.6815 266.763 74.4099 264.8 72.55L267.07 69.17C268.588 70.6666 270.47 71.742 272.53 72.29L273.38 67.29C270.19 65.91 266.66 64.17 267.38 59.88C267.92 56.7 270.69 54.37 275.52 54.64L276.09 51.31L279.09 51.82L278.53 55.09C280.658 55.5864 282.636 56.5841 284.3 58L282.17 61.43C280.919 60.3378 279.46 59.5111 277.88 59L277 64.12C280.2 65.47 283.66 67.2 282.94 71.43C282.42 74.55 279.68 76.86 274.88 76.62ZM274.14 62.86L274.87 58.6C273.22 58.69 272.44 59.45 272.27 60.44C272.1 61.43 272.9 62.22 274.14 62.86V62.86ZM278.07 71C278.24 70 277.47 69.23 276.26 68.56L275.55 72.69C277.11 72.59 277.9 71.93 278.07 71Z" fill="#E0E0E0"/>
<path d="M455.25 455.46C455.25 455.61 326.09 455.72 240.08 455.72C154.07 455.72 48 455.61 48 455.46C48 455.31 154 455.2 240.08 455.2C326.16 455.2 455.25 455.32 455.25 455.46Z" fill="#263238"/>
<path d="M122.78 414.6C139.94 402.6 143.84 380.35 143.16 360.34C143.05 357 143.41 353.48 141.83 350.54C140.25 347.6 136.53 345.61 133.54 347.02C131.06 348.19 129.98 351.07 128.59 353.46C126.729 356.638 124.012 359.23 120.75 360.94C118.63 362.04 116 362.72 113.9 361.56C111.02 359.97 110.68 355.99 110.7 352.67C110.74 346.477 110.777 340.283 110.81 334.09C110.81 330.77 110.81 327.38 109.81 324.23C108.81 321.08 106.49 318.14 103.33 317.23C100.17 316.32 96.26 318.17 95.6 321.42C95.4718 322.793 95.4384 324.173 95.5 325.55C95.41 326.93 94.77 328.46 93.5 328.84C92.23 329.22 90.84 328.29 89.85 327.32C86.42 323.96 84.09 319.64 81.92 315.32C79.75 311 77.63 306.62 74.52 302.96C71.41 299.3 67.11 296.4 62.35 296.13C57.59 295.86 52.52 298.8 51.35 303.47C50.18 308.14 52.88 312.91 55.85 316.7C60.2622 322.323 65.4624 327.281 71.29 331.42C72.4264 332.041 73.3314 333.012 73.87 334.19C74.59 336.41 72.5 338.61 70.31 339.34C67.83 340.16 65.15 339.9 62.56 340.21C59.97 340.52 57.16 341.66 56.18 344.1C54.82 347.5 57.66 351.1 60.45 353.39C66.0478 358.058 72.4073 361.729 79.25 364.24C81.7 365.14 84.25 365.92 86.25 367.64C88.25 369.36 89.41 372.34 88.25 374.64C87.09 376.94 84 377.73 81.44 377.26C78.88 376.79 76.59 375.39 74.15 374.47C69.59 372.75 63.69 373.06 60.77 377.01C58.84 379.6 58.68 383.22 59.65 386.31C60.7521 389.353 62.4522 392.144 64.65 394.52C71.8899 403.208 81.3027 409.823 91.93 413.69C102.52 417.36 112.33 418.35 122.86 414.5" fill="#FFF8E8"/>
<path d="M56.08 299C56.1712 299.121 56.2789 299.229 56.4 299.32L57.4 300.2C58.27 300.97 59.55 302.1 61.16 303.61C65.7292 307.85 69.9713 312.43 73.85 317.31C76.33 320.39 78.85 323.87 81.58 327.66C84.31 331.45 87.11 335.54 89.94 339.94C92.9243 344.522 95.6583 349.262 98.13 354.14C99.41 356.68 100.56 359.33 101.72 362.04L105.25 370.28C109.79 380.717 113.739 391.4 117.08 402.28C119.778 411.173 121.633 420.3 122.62 429.54C123.268 435.772 123.372 442.05 122.93 448.3C122.76 450.52 122.59 452.23 122.43 453.39C122.37 453.95 122.32 454.39 122.28 454.71C122.27 454.863 122.27 455.017 122.28 455.17C122.32 455.022 122.35 454.872 122.37 454.72C122.418 454.279 122.491 453.842 122.59 453.41C122.78 452.25 122.99 450.54 123.2 448.32C123.735 442.056 123.695 435.756 123.08 429.5C122.154 420.22 120.336 411.051 117.65 402.12C114.319 391.195 110.363 380.471 105.8 370L102.27 361.76C101.1 359.05 99.95 356.37 98.66 353.82C96.1705 348.932 93.413 344.184 90.4 339.6C87.55 335.19 84.69 331.12 81.99 327.33C79.29 323.54 76.68 320.07 74.18 317C70.2564 312.133 65.9529 307.586 61.31 303.4C59.67 301.92 58.37 300.81 57.47 300.08L56.47 299.24L56.08 299Z" fill="#263238"/>
<path d="M98.48 353.81C98.6391 353.349 98.7497 352.874 98.81 352.39C98.98 351.47 99.19 350.14 99.42 348.48C99.89 345.18 100.42 340.59 100.91 335.48C101.4 330.37 101.99 325.85 102.51 322.56C102.76 320.91 102.98 319.56 103.15 318.66C103.265 318.189 103.326 317.705 103.33 317.22C103.148 317.669 103.011 318.134 102.92 318.61C102.68 319.52 102.39 320.84 102.09 322.48C101.45 325.77 100.83 330.35 100.3 335.42C99.77 340.49 99.3 344.93 98.99 348.42C98.83 349.98 98.69 351.29 98.57 352.35C98.49 352.832 98.4598 353.322 98.48 353.81V353.81Z" fill="#263238"/>
<path d="M55.77 345.83C56.3297 345.946 56.8986 346.013 57.47 346.03C58.57 346.13 60.16 346.26 62.11 346.49C66.02 346.91 71.41 347.68 77.31 348.79C83.21 349.9 88.51 351.16 92.31 352.17C94.22 352.66 95.75 353.1 96.82 353.4C97.36 353.586 97.9156 353.723 98.48 353.81C97.9732 353.543 97.4405 353.329 96.89 353.17C95.89 352.8 94.33 352.3 92.43 351.75C88.64 350.63 83.34 349.31 77.43 348.19C72.3805 347.212 67.2837 346.498 62.16 346.05C60.16 345.88 58.6 345.81 57.5 345.79C56.9237 345.738 56.3433 345.752 55.77 345.83Z" fill="#263238"/>
<path d="M117.09 401.27C117.212 401.112 117.31 400.937 117.38 400.75L118.11 399.21C118.74 397.86 119.6 395.89 120.63 393.45C122.69 388.55 125.32 381.7 128.13 374.11C130.94 366.52 133.5 359.64 135.45 354.72L137.79 348.88C138.04 348.25 138.24 347.72 138.41 347.29C138.5 347.111 138.56 346.918 138.59 346.72C138.468 346.878 138.37 347.053 138.3 347.24L137.57 348.79C136.94 350.13 136.08 352.1 135.05 354.55C132.99 359.44 130.36 366.29 127.55 373.89C124.74 381.49 122.18 388.35 120.23 393.28L117.89 399.11L117.27 400.7C117.18 400.879 117.12 401.072 117.09 401.27V401.27Z" fill="#263238"/>
<path d="M60.33 383C60.5056 383.101 60.6939 383.179 60.89 383.23L62.54 383.78L68.62 385.78C73.75 387.45 80.81 389.78 88.62 392.47C96.43 395.16 103.51 397.47 108.68 398.99C111.27 399.77 113.36 400.38 114.82 400.77L116.5 401.21C116.695 401.272 116.896 401.309 117.1 401.32C116.921 401.219 116.729 401.141 116.53 401.09L114.89 400.54L108.81 398.54C103.68 396.87 96.62 394.54 88.81 391.85C81 389.16 73.92 386.85 68.81 385.34C66.22 384.56 64.13 383.95 62.67 383.55L61 383.11C60.7828 383.043 60.5573 383.006 60.33 383Z" fill="#263238"/>
<path d="M285.84 405.54L174.84 405.03C171.666 405.016 168.526 404.376 165.599 403.148C162.672 401.92 160.016 400.128 157.781 397.873C155.547 395.618 153.779 392.946 152.578 390.008C151.376 387.07 150.766 383.924 150.78 380.75L152 102.49C152.032 96.0779 154.608 89.9407 159.163 85.4273C163.717 80.9138 169.878 78.3934 176.29 78.42L287.29 78.93C293.701 78.9591 299.838 81.5332 304.352 86.0863C308.866 90.6395 311.387 96.7988 311.36 103.21L310.18 381.47C310.168 384.644 309.531 387.785 308.305 390.713C307.078 393.641 305.287 396.299 303.033 398.534C300.779 400.77 298.107 402.539 295.169 403.741C292.231 404.943 289.084 405.554 285.91 405.54H285.84Z" fill="#263238"/>
<path d="M287.08 88.54L265.57 88.44C264.869 88.4517 264.177 88.6015 263.533 88.8807C262.89 89.16 262.308 89.5632 261.82 90.0675C261.333 90.5717 260.949 91.1671 260.692 91.8195C260.434 92.472 260.308 93.1687 260.32 93.87V93.87V97.78C260.344 99.1973 259.805 100.566 258.82 101.586C257.836 102.606 256.487 103.194 255.07 103.22L213.13 103.02C211.714 102.981 210.37 102.382 209.394 101.355C208.418 100.328 207.888 98.9566 207.92 97.54V93.63C207.955 92.2144 207.427 90.8426 206.452 89.8154C205.478 88.7882 204.136 88.1893 202.72 88.15H195.15L176.32 88C174.097 87.9908 171.893 88.4196 169.836 89.2619C167.778 90.1042 165.907 91.3436 164.328 92.9091C162.75 94.4747 161.495 96.3359 160.635 98.3865C159.776 100.437 159.329 102.637 159.32 104.86V104.86L158.17 376.46C158.17 380.943 159.94 385.244 163.096 388.428C166.252 391.612 170.537 393.42 175.02 393.46L285.79 393.97C290.279 393.986 294.591 392.219 297.779 389.058C300.967 385.897 302.769 381.599 302.79 377.11L303.94 105.51C303.951 101.025 302.181 96.7192 299.02 93.5375C295.859 90.3559 291.565 88.5585 287.08 88.54Z" fill="white"/>
<path d="M261.92 222.86H190.58V291.58H261.92V222.86Z" fill="#FFEFFA"/>
<path d="M210.25 203.71L190.57 222.86H261.91L275.55 203.71H210.25Z" fill="#FFEFFA"/>
<path opacity="0.1" d="M210.25 203.71L190.57 222.86H261.91L275.55 203.71H210.25Z" fill="#FFEFFA"/>
<path d="M261.91 291.57L275.55 272.17V203.71L261.91 222.86V291.57Z" fill="#FFEFFA"/>
<path opacity="0.3" d="M261.91 291.57L275.55 272.17V203.71L261.91 222.86V291.57Z" fill="black"/>
<path d="M243.25 251.39H206.01V255.61H243.25V251.39Z" fill="#FF725E"/>
<path opacity="0.2" d="M243.25 251.39H206.01V255.61H243.25V251.39Z" fill="black"/>
<path d="M236.52 258.77H212.75V262.75H236.52V258.77Z" fill="#FF725E"/>
<path opacity="0.2" d="M236.52 258.77H212.75V262.75H236.52V258.77Z" fill="black"/>
<path d="M205.12 201C205.027 200.132 204.883 199.271 204.69 198.42C204.07 196.113 202.693 194.081 200.78 192.65C199.481 191.662 197.966 190.997 196.36 190.71C194.52 190.382 192.625 190.548 190.87 191.19C189.92 191.524 189.029 192.007 188.23 192.62C187.383 193.238 186.641 193.988 186.03 194.84C184.711 196.625 183.998 198.786 183.998 201.005C183.998 203.224 184.711 205.385 186.03 207.17C187.249 208.837 188.932 210.107 190.87 210.82C192.515 211.421 194.284 211.601 196.017 211.344C197.749 211.088 199.39 210.402 200.79 209.35C202.697 207.92 204.071 205.892 204.69 203.59C204.883 202.736 205.027 201.871 205.12 201C205.189 201.887 205.111 202.779 204.89 203.64C204.331 206.027 202.964 208.147 201.02 209.64C198.93 211.246 196.331 212.041 193.701 211.881C191.07 211.72 188.587 210.613 186.708 208.765C184.83 206.917 183.683 204.452 183.479 201.825C183.276 199.198 184.029 196.586 185.6 194.47C186.821 192.81 188.487 191.531 190.406 190.78C192.325 190.03 194.417 189.839 196.44 190.23C198.478 190.622 200.359 191.594 201.858 193.029C203.357 194.464 204.41 196.301 204.89 198.32C205.116 199.194 205.194 200.1 205.12 201Z" fill="#263238"/>
<path d="M189.64 199.52C189.64 198.02 190.48 197.02 191.72 197.02C192.96 197.02 193.8 198.02 193.8 199.52C193.8 201.02 192.94 202.02 191.72 202.02C191.415 202.003 191.117 201.924 190.845 201.787C190.572 201.65 190.33 201.458 190.135 201.223C189.94 200.989 189.795 200.716 189.71 200.423C189.625 200.13 189.601 199.823 189.64 199.52V199.52ZM193.14 199.52C193.14 198.32 192.57 197.61 191.72 197.61C190.87 197.61 190.3 198.33 190.3 199.52C190.3 200.71 190.85 201.42 191.72 201.42C192.59 201.42 193.14 200.71 193.14 199.52ZM197.29 197.08H198.07L191.78 206.29H191L197.29 197.08ZM195.29 203.86C195.29 202.36 196.15 201.36 197.37 201.36C198.59 201.36 199.45 202.36 199.45 203.86C199.45 205.36 198.61 206.36 197.37 206.36C196.13 206.36 195.28 205.36 195.28 203.86H195.29ZM198.79 203.86C198.79 202.67 198.24 201.95 197.37 201.95C196.5 201.95 195.95 202.66 195.95 203.86C195.95 205.06 196.52 205.76 197.37 205.76C198.22 205.76 198.78 205 198.78 203.86H198.79Z" fill="#263238"/>
<path d="M250.71 314.82C250.71 316.82 249.26 318.52 246.06 318.52C244.553 318.549 243.071 318.132 241.8 317.32L242.8 315.32C243.728 315.98 244.841 316.33 245.98 316.32C247.27 316.32 248.07 315.78 248.07 314.87C248.07 313.96 247.5 313.41 245.47 313.41H242.61L243.19 307.13H250V309.2H245.34L245.17 311.32H246.08C249.4 311.35 250.71 312.84 250.71 314.82Z" fill="#263238"/>
<path d="M251.76 312.74C251.76 309.05 253.81 306.96 256.55 306.96C259.29 306.96 261.34 309.05 261.34 312.74C261.34 316.43 259.34 318.52 256.55 318.52C253.76 318.52 251.76 316.43 251.76 312.74ZM258.76 312.74C258.76 310.2 257.87 309.15 256.57 309.15C255.27 309.15 254.4 310.2 254.4 312.74C254.4 315.28 255.3 316.33 256.57 316.33C257.84 316.33 258.74 315.28 258.74 312.74H258.76Z" fill="#263238"/>
<path d="M268 309.6C268.065 310.182 267.896 310.766 267.53 311.224C267.164 311.681 266.632 311.975 266.05 312.04C265.927 312.05 265.803 312.05 265.68 312.04C265.24 312.049 264.805 311.942 264.42 311.73L264.81 310.96C265.067 311.121 265.367 311.198 265.67 311.18C265.989 311.199 266.303 311.091 266.543 310.879C266.783 310.668 266.929 310.369 266.95 310.05C266.96 309.987 266.96 309.923 266.95 309.86C266.639 310.142 266.229 310.289 265.81 310.27C265.622 310.286 265.432 310.266 265.251 310.209C265.071 310.152 264.903 310.06 264.759 309.938C264.614 309.817 264.494 309.668 264.407 309.5C264.32 309.332 264.266 309.148 264.25 308.96V308.85C264.255 308.645 264.301 308.443 264.384 308.256C264.467 308.069 264.586 307.9 264.735 307.758C264.884 307.617 265.059 307.507 265.25 307.433C265.441 307.36 265.645 307.325 265.85 307.33H266C267.26 307.35 268 308.13 268 309.6ZM266.83 308.81C266.825 308.625 266.748 308.45 266.615 308.321C266.483 308.192 266.305 308.12 266.12 308.12H266C265.909 308.102 265.816 308.102 265.725 308.12C265.635 308.139 265.549 308.175 265.473 308.228C265.397 308.28 265.332 308.347 265.282 308.425C265.232 308.503 265.199 308.59 265.183 308.681C265.168 308.772 265.171 308.866 265.192 308.956C265.214 309.046 265.253 309.13 265.307 309.205C265.362 309.279 265.431 309.342 265.511 309.389C265.59 309.437 265.678 309.467 265.77 309.48H266C266.091 309.496 266.183 309.494 266.273 309.474C266.363 309.453 266.448 309.416 266.523 309.363C266.598 309.31 266.662 309.243 266.712 309.165C266.761 309.087 266.794 309.001 266.81 308.91C266.815 308.874 266.815 308.836 266.81 308.8L266.83 308.81Z" fill="#263238"/>
<path d="M272.17 309.6C272.235 310.182 272.066 310.766 271.7 311.224C271.334 311.681 270.802 311.975 270.22 312.04C270.097 312.05 269.973 312.05 269.85 312.04C269.41 312.049 268.975 311.942 268.59 311.73L269 311C269.253 311.162 269.55 311.239 269.85 311.22C270.007 311.232 270.165 311.213 270.315 311.164C270.465 311.114 270.603 311.036 270.722 310.933C270.841 310.829 270.939 310.703 271.009 310.562C271.079 310.421 271.12 310.267 271.13 310.11C271.14 310.04 271.14 309.97 271.13 309.9C270.98 310.042 270.802 310.152 270.608 310.222C270.413 310.293 270.206 310.323 270 310.31C269.81 310.326 269.619 310.305 269.437 310.248C269.256 310.191 269.087 310.098 268.942 309.975C268.796 309.853 268.676 309.703 268.588 309.534C268.5 309.364 268.446 309.18 268.43 308.99V308.89C268.435 308.685 268.481 308.483 268.564 308.296C268.647 308.109 268.766 307.94 268.915 307.798C269.064 307.657 269.239 307.547 269.43 307.473C269.621 307.4 269.825 307.365 270.03 307.37H270.16C271.4 307.35 272.17 308.13 272.17 309.6ZM270.99 308.81C270.985 308.625 270.908 308.45 270.775 308.321C270.643 308.192 270.465 308.12 270.28 308.12H270.2C270.02 308.12 269.847 308.192 269.719 308.319C269.592 308.447 269.52 308.62 269.52 308.8C269.52 308.98 269.592 309.153 269.719 309.281C269.847 309.408 270.02 309.48 270.2 309.48C270.291 309.494 270.383 309.49 270.473 309.468C270.562 309.446 270.645 309.406 270.719 309.351C270.793 309.296 270.854 309.227 270.901 309.148C270.948 309.069 270.978 308.981 270.99 308.89C270.995 308.86 270.995 308.83 270.99 308.8V308.81Z" fill="#263238"/>
<path d="M272.13 313.61H264.15V314.62H272.13V313.61Z" fill="#263238"/>
<path d="M226.75 310.43H185.55V311.71H226.75V310.43Z" fill="#263238"/>
<path d="M210.56 314.51H185.55V315.79H210.56V314.51Z" fill="#263238"/>
<path d="M274.19 367.28L191.82 366.9C190.97 366.9 190.28 365.96 190.29 364.82L190.38 343.27C190.38 342.13 191.08 341.21 191.93 341.21L274.3 341.6C275.15 341.6 275.84 342.53 275.84 343.67L275.75 365.22C275.74 366.36 275.05 367.28 274.19 367.28Z" fill="#FFEFFA"/>
<path d="M229.65 355.21C229.65 356.31 228.87 356.93 227.33 356.92H224.49V350.47H227.16C228.53 350.47 229.32 351.09 229.32 352.14C229.331 352.458 229.24 352.772 229.06 353.035C228.88 353.297 228.621 353.495 228.32 353.6C228.704 353.65 229.056 353.844 229.302 354.143C229.549 354.442 229.673 354.823 229.65 355.21ZM229 355.15C229 354.31 228.42 353.94 227.33 353.94H225.15V356.36H227.33C228.41 356.37 229 356 229 355.15ZM225.16 351V353.34H227.16C228.16 353.34 228.72 352.95 228.73 352.18C228.74 351.41 228.16 351.01 227.17 351H225.16Z" fill="#121111"/>
<path d="M231.1 354.18V350.49H231.75V354.16C231.75 355.69 232.43 356.39 233.63 356.4C234.83 356.41 235.53 355.71 235.53 354.18V350.51H236.16V354.21C236.16 356.06 235.16 357.01 233.62 357.01C232.08 357.01 231.09 356 231.1 354.18Z" fill="#121111"/>
<path d="M240.16 354.75V357H239.52V354.77L237.07 350.54H237.76L239.87 354.17L242 350.56H242.65L240.16 354.75Z" fill="#121111"/>
<path d="M206.06 148.85H174.92V164.75H206.06V148.85Z" fill="#FFF8E8"/>
<path d="M181.64 143.28L174.92 148.85H206.06L210.65 143.28H181.64Z" fill="#FFF8E8"/>
<path opacity="0.2" d="M181.64 143.28L174.92 148.85H206.06L210.65 143.28H181.64Z" fill="black"/>
<path d="M206.06 164.75L210.65 158.69V143.28L206.06 148.85V164.75Z" fill="#FFF8E8"/>
<path opacity="0.1" d="M206.06 164.75L210.65 158.69V143.28L206.06 148.85V164.75Z" fill="black"/>
<path d="M200.76 154.02H179.53V155.66H200.76V154.02Z" fill="#FFF8E8"/>
<path opacity="0.1" d="M200.76 154.02H179.53V155.66H200.76V154.02Z" fill="black"/>
<path d="M196.91 156.98H183.73V158.62H196.91V156.98Z" fill="#FFF8E8"/>
<path d="M197.92 173.32H183.73V175.49H197.92V173.32Z" fill="#263238"/>
<path d="M174.92 148.85C175.42 148.777 175.925 148.743 176.43 148.75L180.54 148.66C184.01 148.66 188.81 148.59 194.1 148.59L206.1 148.65L205.94 148.72L209.36 144.72C209.764 144.208 210.209 143.73 210.69 143.29C210.353 143.849 209.969 144.378 209.54 144.87L206.22 149L206.16 149.07H206.06L194.06 149.13C188.77 149.13 183.97 149.13 180.5 149.05L176.39 148.97C175.897 148.98 175.405 148.94 174.92 148.85V148.85Z" fill="#FFEFFA"/>
<g opacity="0.2">
<path opacity="0.2" d="M174.92 148.85C175.42 148.777 175.925 148.743 176.43 148.75L180.54 148.66C184.01 148.66 188.81 148.59 194.1 148.59L206.1 148.65L205.94 148.72L209.36 144.72C209.764 144.208 210.209 143.73 210.69 143.29C210.353 143.849 209.969 144.378 209.54 144.87L206.22 149L206.16 149.07H206.06L194.06 149.13C188.77 149.13 183.97 149.13 180.5 149.05L176.39 148.97C175.897 148.98 175.405 148.94 174.92 148.85V148.85Z" fill="black"/>
</g>
<path d="M206.06 164.75C205.798 162.109 205.712 159.453 205.8 156.8C205.707 154.131 205.793 151.458 206.06 148.8C206.33 151.458 206.42 154.13 206.33 156.8C206.42 159.453 206.33 162.109 206.06 164.75Z" fill="#FF725E"/>
<g opacity="0.2">
<path opacity="0.2" d="M206.06 164.75C205.798 162.109 205.712 159.453 205.8 156.8C205.707 154.131 205.793 151.458 206.06 148.8C206.33 151.458 206.42 154.13 206.33 156.8C206.42 159.453 206.33 162.109 206.06 164.75Z" fill="black"/>
</g>
<path d="M242.34 173.32H228.15V175.49H242.34V173.32Z" fill="#263238"/>
<path d="M223.644 140.032L223.438 164.651L245.767 164.838L245.974 140.219L223.644 140.032Z" fill="#FFF8E8"/>
<path d="M230.15 135.07L223.56 140.13H245.89L250.48 135.07H230.15Z" fill="#FFF8E8"/>
<path d="M245.89 164.75L250.48 158.69V135.07L245.89 140.13V164.75Z" fill="#FFF8E8"/>
<path d="M239.69 150.08H228.4V151.72H239.69V150.08Z" fill="#FFF8E8"/>
<path opacity="0.2" d="M239.69 150.08H228.4V151.72H239.69V150.08Z" fill="black"/>
<path d="M237.65 153.05H230.64V154.69H237.65V153.05Z" fill="#FFF8E8"/>
<path opacity="0.2" d="M237.65 153.05H230.64V154.69H237.65V153.05Z" fill="black"/>
<path d="M223.56 140.13C223.939 140.057 224.324 140.023 224.71 140.03L227.83 139.94C230.47 139.89 234.11 139.86 238.14 139.86H245.89L245.72 139.93C247.12 138.42 248.29 137.18 249.12 136.32C249.528 135.842 249.984 135.406 250.48 135.02C250.139 135.547 249.751 136.043 249.32 136.5C248.54 137.41 247.42 138.69 246.06 140.23L245.99 140.31H238.14C234.14 140.31 230.47 140.31 227.83 140.23L224.71 140.15C224.327 140.188 223.941 140.182 223.56 140.13Z" fill="#FFF8E8"/>
<g opacity="0.3">
<path opacity="0.3" d="M223.56 140.13C223.939 140.057 224.324 140.023 224.71 140.03L227.83 139.94C230.47 139.89 234.11 139.86 238.14 139.86H245.89L245.72 139.93C247.12 138.42 248.29 137.18 249.12 136.32C249.528 135.842 249.984 135.406 250.48 135.02C250.139 135.547 249.751 136.043 249.32 136.5C248.54 137.41 247.42 138.69 246.06 140.23L245.99 140.31H238.14C234.14 140.31 230.47 140.31 227.83 140.23L224.71 140.15C224.327 140.188 223.941 140.182 223.56 140.13Z" fill="black"/>
</g>
<path d="M245.89 164.75C245.74 164.75 245.62 159.24 245.62 152.44C245.62 145.64 245.74 140.13 245.89 140.13C246.04 140.13 246.16 145.64 246.16 152.44C246.16 159.24 246 164.75 245.89 164.75Z" fill="#FFF8E8"/>
<g opacity="0.3">
<path opacity="0.3" d="M245.89 164.75C245.74 164.75 245.62 159.24 245.62 152.44C245.62 145.64 245.74 140.13 245.89 140.13C246.04 140.13 246.16 145.64 246.16 152.44C246.16 159.24 246 164.75 245.89 164.75Z" fill="black"/>
</g>
<path d="M281.88 173.32H267.69V175.49H281.88V173.32Z" fill="#263238"/>
<path d="M264.65 149.26C265.809 149.097 266.98 149.033 268.15 149.07C270.32 149.07 273.31 148.99 276.62 148.99C279.55 148.99 282.24 148.99 284.28 149.05L284.13 149.12C285.04 148.12 285.78 147.38 286.31 146.85C286.56 146.552 286.849 146.289 287.17 146.07C286.981 146.408 286.749 146.721 286.48 147C286.01 147.58 285.31 148.4 284.48 149.39L284.42 149.46H284.32C282.32 149.46 279.59 149.52 276.66 149.52C273.35 149.52 270.36 149.52 268.19 149.44C267.007 149.47 265.824 149.41 264.65 149.26V149.26Z" fill="#FFF8E8"/>
<path d="M284.29 149.26H264.65V164.76H284.29V149.26Z" fill="#FFF8E8"/>
<path opacity="0.2" d="M284.29 149.26H264.65V164.76H284.29V149.26Z" fill="black"/>
<path d="M268.8 146.07L264.65 149.25H284.29L287.17 146.07H268.8Z" fill="#FFF8E8"/>
<path d="M284.29 164.75L287.17 160.94V146.07L284.29 149.25V164.75Z" fill="#FFF8E8"/>
<path opacity="0.1" d="M284.29 164.75L287.17 160.94V146.07L284.29 149.25V164.75Z" fill="black"/>
<path d="M279.2 155.17H270.21V156.37H279.2V155.17Z" fill="#FFF8E8"/>
<path d="M277.57 157.35H271.99V158.55H277.57V157.35Z" fill="#FFF8E8"/>
<path d="M284.29 164.75C284.013 162.177 283.916 159.587 284 157C283.91 154.417 284 151.831 284.27 149.26C284.527 151.831 284.613 154.417 284.53 157C284.62 159.586 284.54 162.175 284.29 164.75Z" fill="#FFF8E8"/>
<path d="M312.32 74.58L310.28 78.3L306.56 80.33L310.28 82.37L312.32 86.08L314.35 82.37L318.07 80.33L314.35 78.3L312.32 74.58Z" fill="#FFF8E8"/>
<path d="M138.35 170.27L136.31 173.99L132.59 176.02L136.31 178.05L138.35 181.77L140.38 178.05L144.1 176.02L140.38 173.99L138.35 170.27Z" fill="#FFF8E8"/>
<path d="M327.14 90.36L325.89 92.64L323.61 93.89L325.89 95.14L327.14 97.43L328.4 95.14L330.68 93.89L328.4 92.64L327.14 90.36Z" fill="#FFF8E8"/>
<path d="M127.19 148.89L125.94 151.17L123.66 152.42L125.94 153.67L127.19 155.96L128.44 153.67L130.72 152.42L128.44 151.17L127.19 148.89Z" fill="#FFF8E8"/>
<path d="M409.69 409L402.33 403.21L413.08 389.36L423.93 397.71L423.32 398.61C420.57 402.61 409.04 418.69 406.32 420.61C403.2 422.86 409.69 409 409.69 409Z" fill="#FF725E"/>
<path d="M405.35 420.48C405.22 420.38 409.17 415.14 414.17 408.78C419.17 402.42 423.33 397.35 423.46 397.45C423.59 397.55 419.64 402.79 414.64 409.15C409.64 415.51 405.48 420.58 405.35 420.48Z" fill="#263238"/>
<path d="M411 410.46C411 410.62 410.49 410.68 409.93 410.68C409.37 410.68 408.88 410.6 408.86 410.44C408.84 410.28 409.31 410.07 409.93 410.08C410.55 410.09 411 410.3 411 410.46Z" fill="#263238"/>
<path d="M410.79 411.72C410.74 411.88 410.21 411.87 409.59 411.78C408.97 411.69 408.45 411.57 408.45 411.41C408.45 411.25 409 411.1 409.67 411.19C410.34 411.28 410.84 411.56 410.79 411.72Z" fill="#263238"/>
<path d="M420.14 401.56C420.06 401.56 419.89 401.27 419.69 400.73C419.421 400.007 419.289 399.241 419.3 398.47C419.31 397.664 419.6 396.886 420.12 396.27C420.53 395.81 420.91 395.7 420.95 395.77C420.99 395.84 420.73 396.07 420.46 396.52C420.107 397.128 419.914 397.817 419.9 398.52C419.902 399.235 419.969 399.948 420.1 400.65C420.19 401.18 420.22 401.54 420.14 401.56Z" fill="#263238"/>
<path d="M409.58 409.41C409.52 409.26 409.82 408.99 410.21 408.74C410.6 408.49 410.98 408.33 411.09 408.45C411.2 408.57 410.98 408.96 410.54 409.25C410.1 409.54 409.64 409.57 409.58 409.41Z" fill="#263238"/>
<path d="M409 408.64C408.88 408.52 409.07 408.07 409.42 407.64C409.77 407.21 410.18 406.91 410.32 407.01C410.46 407.11 410.26 407.55 409.89 408.01C409.52 408.47 409.16 408.75 409 408.64Z" fill="#263238"/>
<path d="M360.93 290C360.93 290 338.93 348.34 341.93 359.24C344.93 370.14 404.11 413.42 404.11 413.42L420.18 390.28C420.18 390.28 374 353.73 373.85 351.72C373.7 349.71 392.19 301.23 392.19 301.23L360.93 290Z" fill="#263238"/>
<path d="M403.09 395.63L402.88 395.52C402.73 395.41 402.54 395.29 402.3 395.14L400.1 393.63C398.21 392.3 395.47 390.36 392.1 387.9C385.44 382.98 376.39 375.96 366.79 367.74C364.39 365.68 362.06 363.65 359.79 361.68L356.52 358.75C355.403 357.853 354.45 356.77 353.7 355.55C353.083 354.293 352.937 352.856 353.29 351.5C353.54 350.21 353.87 349 354.18 347.81C354.81 345.46 355.44 343.28 356.01 341.29L358.75 331.88C359.05 330.8 359.29 329.94 359.47 329.31L359.65 328.64C359.619 328.631 359.593 328.61 359.576 328.582C359.559 328.555 359.554 328.522 359.56 328.49C359.568 328.458 359.588 328.431 359.616 328.414C359.644 328.397 359.678 328.392 359.71 328.4C359.742 328.408 359.769 328.428 359.786 328.456C359.803 328.484 359.808 328.518 359.8 328.55C359.795 328.572 359.784 328.592 359.768 328.608C359.752 328.624 359.732 328.635 359.71 328.64C359.684 328.87 359.637 329.098 359.57 329.32C359.44 329.91 359.24 330.79 358.95 331.91C358.38 334.16 357.49 337.39 356.38 341.38C355.83 343.38 355.22 345.55 354.61 347.91C354.31 349.08 353.99 350.31 353.75 351.56C353.431 352.813 353.57 354.139 354.14 355.3C354.869 356.462 355.788 357.494 356.86 358.35L360.14 361.26C362.37 363.26 364.7 365.26 367.14 367.31C376.73 375.52 385.73 382.58 392.33 387.57L400.19 393.44L402.33 395.03L402.88 395.45C403 395.57 403.1 395.63 403.09 395.63Z" fill="#455A64"/>
<path d="M397.73 402.68C397.61 402.59 400.66 398.38 404.54 393.28C408.42 388.18 411.67 384.11 411.79 384.2C411.91 384.29 408.85 388.5 404.97 393.61C401.09 398.72 397.85 402.77 397.73 402.68Z" fill="#455A64"/>
<path d="M399.71 179.06C401.71 182.98 402.71 186.38 406.59 188.4C408.34 189.32 410.48 189.84 411.59 191.5C412.74 193.32 412.2 195.95 413.65 197.5C415.77 199.81 420.09 197.94 422.46 199.97C424.58 201.79 423.9 205.69 426.19 207.29C427.47 208.2 429.19 208 430.69 208.56C433.09 209.49 434.23 212.26 434.54 214.81C434.871 216.857 434.61 218.956 433.79 220.86C433.371 221.805 432.72 222.629 431.899 223.256C431.078 223.883 430.112 224.294 429.09 224.45C426.36 224.74 423.28 222.86 421.09 224.45C420.378 225.11 419.759 225.863 419.25 226.69C418.692 227.399 418 227.992 417.213 228.434C416.426 228.875 415.559 229.158 414.663 229.264C413.767 229.371 412.859 229.3 411.99 229.056C411.121 228.812 410.309 228.398 409.6 227.84C408.96 227.328 408.418 226.705 408 226C406.48 223.46 406.58 220 404.35 218C403.085 217.111 401.669 216.46 400.17 216.08C398.72 215.54 397.22 214.64 396.79 213.16C396.29 211.851 395.581 210.632 394.69 209.55C393.58 207.89 392.1 209.92 390.62 209.1C389.14 208.28 389.71 206.68 389.62 205" fill="#263238"/>
<path d="M373.84 235.74L354.84 229.39C354.84 229.39 346.45 253.55 343.84 253.79C329.6 255.09 314.36 250.36 309.02 248.5C308.47 247.89 307.85 247.16 307.16 246.26C306.572 245.488 306.119 244.623 305.82 243.7C305.408 242.567 305.152 241.382 305.06 240.18C305.088 239.886 304.999 239.593 304.811 239.364C304.624 239.136 304.354 238.99 304.06 238.96C303.893 238.947 303.725 238.97 303.567 239.029C303.41 239.088 303.268 239.18 303.15 239.3C302.54 240.1 302.38 243.15 303.78 246.44C305.18 249.73 300.21 247.11 298.38 246.19C296.55 245.27 290.76 242.69 290.03 243.03C288.96 243.53 289.3 244.76 291.15 245.64C293 246.52 298.36 249.53 297.82 250.47C297.28 251.41 288.05 246.59 288.05 246.59C288.05 246.59 286.23 245.25 285.58 246.32C284.41 248.25 294.58 252.63 295.58 253.02C296.27 253.3 295.73 254.34 295.01 254.02C294.29 253.7 286.01 249.02 284.77 251.02C283.83 252.52 293.13 254.71 294.33 256.64C295.53 258.57 287.45 254.27 286.62 255.74C286.31 256.28 286.15 256.74 291.15 258.54C294.814 259.681 298.536 260.629 302.3 261.38V261.43C302.3 261.43 352.24 283.77 363.02 262.24C374.42 239.32 373.84 235.74 373.84 235.74Z" fill="#E5BAAB"/>
<path d="M392.61 215.73L400.9 215.88L407.48 234.75L402.12 256.37C400.55 262.68 407.67 275.32 407.48 282.29L361 289.82L360 258.77V257.77L343.91 249.77L349.22 236.77C357.39 217.63 371.66 216.47 371.66 216.47L392.61 215.73Z" fill="#FFF8E8"/>
<g opacity="0.2">
<path opacity="0.2" d="M392.61 215.73L400.9 215.88L407.48 234.75L402.12 256.37C400.55 262.68 407.67 275.32 407.48 282.29L361 289.82L360 258.77V257.77L343.91 249.77L349.22 236.77C357.39 217.63 371.66 216.47 371.66 216.47L392.61 215.73Z" fill="white"/>
</g>
<path d="M401.24 215.93C401.142 215.944 401.05 215.982 400.97 216.04C400.704 216.13 400.434 216.207 400.16 216.27C399.097 216.462 398.02 216.569 396.94 216.59L397.04 216.4L400.21 221.55L400.43 221.89L400.02 221.82C398.184 221.5 396.313 221.44 394.46 221.64L394.65 221.4C394.72 223.513 395.021 225.613 395.55 227.66L395.69 228.08L395.25 227.98C393.139 227.529 391.102 226.781 389.2 225.76L389.59 225.59C389.21 227.45 388.82 229.4 388.42 231.39L388.33 231.82L387.99 231.55C387.152 230.881 386.353 230.163 385.6 229.4C384.856 228.656 384.158 227.868 383.51 227.04L383.89 227.09L378.57 231.28L378.24 231.54L378.15 231.13C377.77 229.28 377.41 227.48 377.06 225.76L377.38 225.94L371.69 227.94L371.3 228.08L371.41 227.68C372.01 225.41 372.56 223.35 373.06 221.52L373.2 221.74L368.26 220.89H368.06L368.17 220.72L370.33 217.56L370.91 216.75C371.04 216.57 371.12 216.48 371.13 216.49C371.14 216.5 371.03 216.69 370.97 216.79L370.45 217.63L368.4 220.86L368.31 220.66L373.26 221.41H373.46V221.61L371.88 227.79L371.6 227.52L377.26 225.52L377.53 225.42L377.59 225.7L378.71 231.07L378.29 230.92L383.6 226.71L383.81 226.54L383.98 226.75C384.601 227.539 385.269 228.29 385.98 229C386.719 229.747 387.5 230.452 388.32 231.11L387.9 231.27C388.3 229.27 388.7 227.33 389.08 225.47L389.15 225.11L389.47 225.3C391.325 226.299 393.311 227.033 395.37 227.48L395.08 227.79C394.554 225.709 394.265 223.576 394.22 221.43V221.21H394.44C396.335 221.018 398.249 221.102 400.12 221.46L399.93 221.74C398.72 219.74 397.69 217.94 396.85 216.53L396.75 216.35H396.95C398.023 216.358 399.096 216.291 400.16 216.15C400.516 216.058 400.876 215.985 401.24 215.93V215.93Z" fill="#455A64"/>
<path d="M410.42 223.86C410.096 223.722 409.761 223.609 409.42 223.52C408.46 223.254 407.448 223.237 406.48 223.47L406.56 223.36C406.75 224.46 407.05 225.78 407.46 227.29C407.87 228.8 408.37 230.51 408.82 232.44L408.89 232.72L408.6 232.64C406.23 231.95 403.44 231.43 400.51 230.44L400.78 230.22C401.09 233.07 401.07 236.22 401.24 239.62V239.91H400.94C398.269 239.446 395.642 238.754 393.09 237.84C392.77 237.75 392.4 237.62 392.31 237.76C392.11 238.001 391.96 238.28 391.87 238.58L391.04 240.58C390.49 241.93 389.92 243.3 389.35 244.68L389.18 245.1L388.9 244.75L383.58 238.15L383.18 237.66H383.54L375 243.54L374.72 243.73L374.6 243.41C373.6 240.63 372.7 237.95 371.8 235.35L372.18 235.48C369.192 237.421 366 239.028 362.66 240.27L362.31 240.41V240C362.92 235.67 363.47 231.78 363.94 228.42L364.19 228.61C361.76 229.57 359.149 229.99 356.54 229.84H356.37L356.43 229.68L358.22 224.86C358.43 224.35 358.58 223.94 358.7 223.63C358.749 223.487 358.813 223.35 358.89 223.22C358.861 223.366 358.821 223.51 358.77 223.65C358.66 223.97 358.52 224.38 358.35 224.91C357.95 226.05 357.35 227.68 356.66 229.77L356.55 229.6C359.115 229.703 361.672 229.256 364.05 228.29L364.34 228.17V228.48C363.89 231.85 363.34 235.73 362.8 240.07L362.49 239.83C365.788 238.579 368.94 236.973 371.89 235.04L372.16 234.87L372.27 235.17L375.09 243.17L374.69 243.05L383.24 237.16L383.45 237.02L383.6 237.21L384 237.7L389.31 244.31L388.86 244.37L390.56 240.27L391.39 238.27C391.51 237.892 391.719 237.549 392 237.27C392.101 237.18 392.226 237.121 392.36 237.1H392.7C392.886 237.139 393.07 237.189 393.25 237.25C395.778 238.156 398.377 238.852 401.02 239.33L400.74 239.58C400.59 236.2 400.62 233.03 400.34 230.2V229.87L400.65 229.98C403.55 230.98 406.32 231.53 408.71 232.25L408.49 232.45C408.07 230.54 407.58 228.83 407.2 227.3C406.82 225.77 406.54 224.45 406.37 223.3V223.21H406.46C407.454 222.986 408.491 223.035 409.46 223.35C409.8 223.479 410.123 223.65 410.42 223.86V223.86Z" fill="#455A64"/>
<path d="M360.26 257.5C359.894 257.392 359.554 257.212 359.26 256.97C358.408 256.378 357.678 255.628 357.11 254.76C356.266 253.441 355.883 251.88 356.02 250.32C356.085 248.62 356.589 246.966 357.483 245.519C358.377 244.071 359.63 242.88 361.12 242.06L360.98 242.26C361.36 239.41 361.71 236.96 361.98 235.26C362.079 234.332 362.25 233.412 362.49 232.51C362.498 233.447 362.432 234.384 362.29 235.31C362.12 237.05 361.83 239.51 361.48 242.37V242.49L361.35 242.56C359.956 243.359 358.784 244.494 357.941 245.862C357.097 247.229 356.609 248.786 356.52 250.39C356.369 251.856 356.691 253.331 357.44 254.6C357.972 255.46 358.649 256.221 359.44 256.85C359.724 257.052 359.998 257.269 360.26 257.5V257.5Z" fill="#455A64"/>
<path d="M362 236.55C361.87 236.62 361.41 235.95 361 235.07C360.59 234.19 360.32 233.42 360.46 233.35C360.6 233.28 361.05 233.95 361.46 234.84C361.87 235.73 362.15 236.49 362 236.55Z" fill="#455A64"/>
<path d="M392.05 216L393.48 183.33L380.48 173.5L368.69 179.26C368.69 179.26 368.29 194.07 368.69 200.5C369.09 206.93 375.56 207.6 375.56 207.6C375.56 207.6 375.41 211.37 375.26 215.32C375.173 217.533 375.966 219.69 377.465 221.321C378.964 222.951 381.048 223.921 383.26 224.02H383.68C385.839 224.017 387.914 223.182 389.473 221.688C391.032 220.194 391.955 218.157 392.05 216V216Z" fill="#E5BAAB"/>
<path d="M370 190.06C369.998 190.224 370.045 190.385 370.134 190.523C370.224 190.66 370.352 190.768 370.503 190.833C370.654 190.898 370.821 190.916 370.982 190.886C371.143 190.856 371.292 190.779 371.41 190.664C371.527 190.549 371.608 190.402 371.642 190.242C371.676 190.081 371.662 189.914 371.601 189.762C371.54 189.609 371.435 189.478 371.299 189.385C371.164 189.293 371.004 189.242 370.84 189.24V189.24C370.623 189.24 370.414 189.326 370.26 189.48C370.106 189.634 370.02 189.843 370.02 190.06H370Z" fill="#263238"/>
<path d="M369.2 189.16C369.3 189.27 369.91 188.75 370.79 188.7C371.67 188.65 372.34 189.08 372.44 188.96C372.54 188.84 372.37 188.72 372.08 188.52C371.689 188.266 371.226 188.143 370.76 188.17C370.294 188.197 369.849 188.372 369.49 188.67C369.23 188.91 369.14 189.12 369.2 189.16Z" fill="#263238"/>
<path d="M379.52 190.06C379.52 190.222 379.568 190.381 379.658 190.516C379.748 190.65 379.876 190.756 380.026 190.818C380.176 190.88 380.341 190.896 380.5 190.864C380.659 190.833 380.805 190.755 380.92 190.64C381.035 190.525 381.113 190.379 381.144 190.22C381.176 190.061 381.16 189.896 381.098 189.746C381.036 189.596 380.93 189.468 380.796 189.378C380.661 189.288 380.502 189.24 380.34 189.24C380.123 189.24 379.914 189.326 379.76 189.48C379.606 189.634 379.52 189.843 379.52 190.06Z" fill="#263238"/>
<path d="M379 189.16C379.1 189.27 379.71 188.75 380.6 188.7C381.49 188.65 382.14 189.08 382.24 188.96C382.34 188.84 382.17 188.72 381.88 188.52C381.489 188.266 381.026 188.143 380.56 188.17C380.094 188.197 379.649 188.372 379.29 188.67C379.207 188.724 379.138 188.796 379.087 188.881C379.037 188.966 379.007 189.061 379 189.16V189.16Z" fill="#263238"/>
<path d="M378.74 197.47C377.39 198.161 375.949 198.659 374.46 198.95C374.787 199.394 375.252 199.717 375.783 199.868C376.313 200.018 376.879 199.987 377.39 199.78C377.626 199.726 377.849 199.626 378.046 199.485C378.243 199.345 378.41 199.167 378.539 198.961C378.667 198.756 378.753 198.527 378.793 198.289C378.833 198.05 378.825 197.806 378.77 197.57L378.74 197.47Z" fill="white"/>
<path d="M375.57 207.6C378.622 207.475 381.575 206.479 384.08 204.73C384.08 204.73 382.15 209.45 375.71 209.18L375.57 207.6Z" fill="#D78776"/>
<path d="M412.17 201.79C411.36 201.821 410.557 201.638 409.84 201.26C408.781 200.692 407.901 199.84 407.3 198.8C406.552 197.5 405.917 196.138 405.4 194.73C404.2 191.73 403.3 188.98 402.68 186.96C402.59 186.64 402.5 186.35 402.42 186.07C402.34 185.79 402.31 185.42 402.25 185.19C398.74 171.8 387 169.3 384.64 169.3C382.28 169.3 377.78 167.93 371.41 174.54C370.448 175.532 369.633 176.657 368.99 177.88C367.583 179.646 366.61 181.719 366.15 183.93C365.871 184.97 365.819 186.058 366 187.12C366.12 187.12 366.14 185.9 366.64 184.04C366.943 182.947 367.359 181.888 367.88 180.88C367.322 183.354 367.549 185.941 368.53 188.28L370.81 187.65L378.99 184.87C378.25 182.33 379.34 179.19 379.99 177.72L380.05 177.67C380.51 180.34 381.806 182.795 383.75 184.682C385.694 186.569 388.187 187.79 390.87 188.17L392.38 209.17C403.25 206.85 403 192.3 402.93 189.34C403.43 191.01 404.07 192.92 404.87 194.93C405.404 196.37 406.074 197.756 406.87 199.07C407.547 200.176 408.53 201.062 409.7 201.62C410.488 201.99 411.369 202.119 412.23 201.99C412.549 201.958 412.853 201.841 413.11 201.65C412.801 201.724 412.487 201.771 412.17 201.79V201.79Z" fill="#263238"/>
<path d="M375.81 196.64C375.339 196.52 374.856 196.459 374.37 196.46C374.14 196.46 373.92 196.41 373.87 196.25C373.842 196.002 373.887 195.752 374 195.53L374.6 193.7C375.03 192.39 375.39 191.2 375.6 190.34C375.769 189.882 375.88 189.405 375.93 188.92C375.681 189.339 375.489 189.79 375.36 190.26C375.06 191.11 374.66 192.26 374.23 193.59C374.03 194.23 373.84 194.85 373.65 195.43C373.519 195.719 373.491 196.043 373.57 196.35C373.601 196.43 373.651 196.5 373.715 196.556C373.78 196.612 373.857 196.651 373.94 196.67C374.069 196.69 374.201 196.69 374.33 196.67C374.823 196.72 375.32 196.71 375.81 196.64V196.64Z" fill="#263238"/>
<path d="M394.16 196.37C394.06 195.301 394.179 194.222 394.51 193.2C394.681 192.69 394.985 192.236 395.391 191.884C395.798 191.532 396.291 191.296 396.82 191.2C397.436 191.174 398.04 191.375 398.519 191.763C398.998 192.152 399.318 192.702 399.42 193.31C399.495 193.924 399.384 194.546 399.103 195.097C398.821 195.647 398.382 196.101 397.84 196.4C397.292 196.687 396.685 196.845 396.067 196.862C395.448 196.88 394.833 196.756 394.27 196.5" fill="#E5BAAB"/>
<path d="M396 195.43C396 195.36 396.35 195.52 396.81 195.38C397.098 195.286 397.349 195.104 397.528 194.861C397.708 194.617 397.806 194.323 397.81 194.02C397.834 193.869 397.825 193.714 397.786 193.566C397.746 193.418 397.676 193.279 397.58 193.16C397.382 193.004 397.131 192.929 396.88 192.95C396.4 193 396.06 193.12 396.03 193.04C396 192.96 396.25 192.74 396.82 192.58C397.004 192.532 397.197 192.526 397.384 192.562C397.571 192.598 397.747 192.676 397.9 192.79C398.07 192.949 398.198 193.147 398.275 193.366C398.351 193.585 398.374 193.82 398.34 194.05C398.317 194.492 398.148 194.914 397.86 195.25C397.622 195.531 397.286 195.71 396.92 195.75C396.27 195.82 396 195.47 396 195.43Z" fill="#D78776"/>
<path d="M386.19 450.82V441.46L403.73 441.35L403.87 455.04L402.79 455.12C397.95 455.42 378.17 456.3 374.93 455.34C371.32 454.27 386.19 450.82 386.19 450.82Z" fill="#FF725E"/>
<path d="M374.52 454.48C374.52 454.32 381.08 454.18 389.17 454.18C397.26 454.18 403.81 454.32 403.81 454.48C403.81 454.64 397.26 454.78 389.17 454.78C381.08 454.78 374.52 454.65 374.52 454.48Z" fill="#263238"/>
<path d="M385.89 452.73C385.74 452.81 385.4 452.47 385.05 452.02C384.7 451.57 384.47 451.16 384.58 451.02C384.69 450.88 385.15 451.15 385.53 451.64C385.91 452.13 386 452.65 385.89 452.73Z" fill="#263238"/>
<path d="M384.77 453.35C384.61 453.41 384.3 452.98 383.98 452.44C383.66 451.9 383.44 451.44 383.57 451.31C383.7 451.18 384.15 451.55 384.49 452.14C384.83 452.73 384.92 453.29 384.77 453.35Z" fill="#263238"/>
<path d="M398.53 454.42C398.47 454.37 398.61 454.04 398.91 453.55C399.309 452.89 399.832 452.312 400.45 451.85C401.089 451.362 401.876 451.108 402.68 451.13C403.3 451.13 403.62 451.4 403.59 451.47C403.56 451.54 403.21 451.47 402.69 451.55C402.004 451.645 401.353 451.913 400.8 452.33C400.236 452.771 399.717 453.267 399.25 453.81C398.86 454.22 398.6 454.47 398.53 454.42Z" fill="#263238"/>
<path d="M385.83 451C385.92 450.86 386.31 450.93 386.75 451.08C387.19 451.23 387.55 451.43 387.52 451.59C387.49 451.75 387.05 451.82 386.52 451.65C385.99 451.48 385.75 451.11 385.83 451Z" fill="#263238"/>
<path d="M386.11 450.06C386.11 449.9 386.59 449.77 387.16 449.78C387.73 449.79 388.16 449.93 388.16 450.09C388.16 450.25 387.7 450.39 387.11 450.38C386.52 450.37 386.09 450.23 386.11 450.06Z" fill="#263238"/>
<path d="M370.53 288.4L360.93 290.01L366.46 296.81C368.05 328.81 367.66 359.86 369.13 375.33C369.35 377.68 379.27 451.33 378.28 449.64L407.49 450.86L398.77 376.86L402.9 311.13C407.379 303.364 408.69 294.169 406.56 285.46L405.84 282.51" fill="#455A64"/>
<path d="M390.66 172.74C389.932 172.46 389.28 172.011 388.759 171.43C388.237 170.85 387.861 170.154 387.66 169.4C387.478 168.641 387.505 167.846 387.739 167.101C387.974 166.356 388.406 165.688 388.99 165.17C389.589 164.67 390.325 164.363 391.101 164.29C391.878 164.217 392.658 164.381 393.34 164.76C394.384 165.481 395.147 166.541 395.5 167.76C395.83 168.546 395.92 169.413 395.76 170.25C395.56 170.853 395.206 171.393 394.735 171.819C394.264 172.245 393.69 172.542 393.07 172.68C391.825 172.928 390.547 172.962 389.29 172.78" fill="#263238"/>
<path d="M416.43 190.56C416.54 190.132 416.56 189.686 416.49 189.25C416.376 188.755 416.139 188.298 415.8 187.92C415.331 187.433 414.735 187.086 414.08 186.92C413.272 186.724 412.437 186.666 411.61 186.75C410.7 186.81 409.73 186.97 408.67 186.99C407.534 187.06 406.404 186.792 405.42 186.22C404.436 185.482 403.745 184.419 403.47 183.22C402.81 181.107 401.72 179.153 400.27 177.48C399.081 176.116 397.684 174.948 396.13 174.02C394.661 173.219 393.112 172.572 391.51 172.09H391.86C392.2 172.117 392.536 172.184 392.86 172.29C394.071 172.598 395.238 173.062 396.33 173.67C397.951 174.576 399.411 175.746 400.65 177.13C402.168 178.828 403.31 180.829 404 183C404.233 184.087 404.842 185.057 405.72 185.74C406.628 186.269 407.671 186.52 408.72 186.46C409.72 186.46 410.72 186.31 411.64 186.27C412.515 186.203 413.394 186.288 414.24 186.52C414.953 186.72 415.592 187.123 416.08 187.68C416.437 188.11 416.672 188.628 416.76 189.18C416.811 189.516 416.78 189.859 416.67 190.18C416.53 190.47 416.44 190.57 416.43 190.56Z" fill="#263238"/>
<path d="M398 196.31C398 196.26 398.48 196.64 398.48 197.5C398.474 197.753 398.417 198.002 398.312 198.233C398.208 198.463 398.057 198.67 397.87 198.84C397.645 199.06 397.37 199.223 397.07 199.317C396.769 199.411 396.451 199.433 396.14 199.38C395.831 199.326 395.538 199.203 395.283 199.019C395.028 198.836 394.819 198.597 394.67 198.32C394.551 198.098 394.477 197.855 394.453 197.604C394.429 197.353 394.455 197.1 394.53 196.86C394.582 196.641 394.684 196.436 394.828 196.263C394.972 196.089 395.154 195.951 395.36 195.86C395.119 196.172 394.961 196.54 394.9 196.93C394.829 197.318 394.9 197.719 395.1 198.06C395.225 198.259 395.39 198.43 395.585 198.563C395.779 198.695 395.999 198.786 396.23 198.83C396.462 198.864 396.699 198.848 396.924 198.785C397.15 198.721 397.36 198.61 397.54 198.46C397.842 198.205 398.041 197.85 398.1 197.46C398.16 196.77 397.88 196.35 398 196.31Z" fill="#E0E0E0"/>
<path d="M395.37 174C393.229 171.866 390.498 170.421 387.53 169.85C389.087 169.79 390.631 170.142 392.008 170.87C393.385 171.599 394.545 172.679 395.37 174Z" fill="#FF725E"/>
<path d="M399.1 195.08C399.1 195.01 399.39 194.99 399.57 195.32C399.614 195.419 399.637 195.526 399.637 195.635C399.637 195.744 399.614 195.851 399.57 195.95C399.504 196.074 399.407 196.179 399.287 196.252C399.167 196.326 399.03 196.367 398.89 196.37C398.677 196.384 398.467 196.313 398.306 196.172C398.144 196.032 398.045 195.833 398.03 195.62C398.02 195.567 398.02 195.513 398.03 195.46C398.03 195.12 398.27 195.01 398.32 195.05C398.37 195.09 398.32 195.25 398.41 195.45C398.425 195.56 398.481 195.659 398.566 195.73C398.651 195.8 398.76 195.836 398.87 195.83C398.912 195.833 398.954 195.827 398.994 195.813C399.034 195.8 399.071 195.778 399.102 195.751C399.134 195.723 399.16 195.689 399.178 195.651C399.197 195.613 399.207 195.572 399.21 195.53C399.21 195.53 399.21 195.48 399.21 195.45C399.2 195.26 399.08 195.16 399.1 195.08Z" fill="#E0E0E0"/>
<path d="M392.26 215C392.362 215.35 392.399 215.716 392.37 216.08C392.348 217.076 392.152 218.061 391.79 218.99C391.323 220.189 390.596 221.27 389.662 222.155C388.727 223.04 387.608 223.706 386.385 224.107C385.162 224.508 383.865 224.632 382.589 224.472C381.312 224.312 380.086 223.871 379 223.18C377.741 222.372 376.709 221.257 376 219.94C375.527 219.062 375.212 218.107 375.07 217.12C375 216.763 375 216.397 375.07 216.04C375.281 217.343 375.71 218.6 376.34 219.76C377.061 220.978 378.062 222.006 379.26 222.76C380.745 223.653 382.467 224.075 384.197 223.969C385.927 223.864 387.584 223.237 388.95 222.17C390.051 221.276 390.922 220.13 391.49 218.83C391.954 217.604 392.214 216.31 392.26 215V215Z" fill="#455A64"/>
<path d="M390.16 444.17C390.131 444.082 390.11 443.992 390.1 443.9C390.1 443.69 390.03 443.43 389.99 443.1C389.89 442.36 389.75 441.33 389.58 440.03C389.24 437.36 388.79 433.5 388.26 428.71C387.19 419.15 385.88 405.93 384.7 391.3C383.52 376.67 382.7 363.39 382.24 353.78C381.99 348.98 381.83 345.09 381.74 342.4C381.7 341.067 381.67 340.037 381.65 339.31V338.5C381.64 338.41 381.64 338.32 381.65 338.23C381.66 338.32 381.66 338.41 381.65 338.5C381.644 338.768 381.664 339.036 381.71 339.3C381.76 340.05 381.82 341.08 381.91 342.39C382.07 345.12 382.29 348.99 382.57 353.76C383.15 363.36 384.03 376.62 385.2 391.25C386.37 405.88 387.63 419.11 388.59 428.67C389.08 433.43 389.47 437.29 389.75 440.01C389.88 441.31 389.98 442.34 390.05 443.09C390.058 443.358 390.081 443.625 390.12 443.89C390.148 443.981 390.161 444.075 390.16 444.17Z" fill="#263238"/>
<path d="M406.48 444.24C406.114 444.338 405.738 444.392 405.36 444.4C404.64 444.46 403.59 444.53 402.3 444.59C399.71 444.72 396.13 444.78 392.18 444.72C388.23 444.66 384.65 444.54 382.07 444.44L379.01 444.29C378.63 444.3 378.25 444.26 377.88 444.17C378.251 444.09 378.631 444.06 379.01 444.08H382.08C384.66 444.08 388.24 444.14 392.19 444.2C396.14 444.26 399.7 444.26 402.29 444.2H405.35C405.727 444.168 406.106 444.182 406.48 444.24Z" fill="#263238"/>
<path d="M401.24 215.93C399.863 216.436 398.407 216.696 396.94 216.7L397.13 216.34L399.06 219.47L400.28 221.47L400.57 221.96L400.01 221.85C398.161 221.578 396.298 221.421 394.43 221.38C394.943 221.211 395.48 221.127 396.02 221.13C397.384 221.043 398.753 221.117 400.1 221.35L399.84 221.73L398.6 219.73L396.73 216.57L396.52 216.22H396.92C398.2 216.16 399.29 216.08 400.04 216.01C400.436 215.944 400.838 215.917 401.24 215.93Z" fill="#455A64"/>
<path d="M410.42 223.86C410.42 223.95 408.97 223.6 406.48 223.54L406.65 223.35C407.24 225.69 408.02 228.81 408.93 232.41L409.03 232.83L408.62 232.72L402.26 231L400.53 230.52L400.87 230.25C401.01 233.7 401.14 236.9 401.25 239.65V239.95L400.97 239.87L394.86 238.16L393.17 237.66C392.968 237.609 392.773 237.531 392.59 237.43C392.8 237.433 393.009 237.467 393.21 237.53L394.93 237.92L401.06 239.44L400.79 239.67C400.65 236.92 400.49 233.72 400.32 230.28V229.91L400.68 230.01L402.41 230.49L408.75 232.26L408.44 232.57C407.6 228.94 406.88 225.8 406.33 223.44L406.28 223.24H406.5C407.478 223.288 408.451 223.412 409.41 223.61C409.754 223.659 410.093 223.743 410.42 223.86Z" fill="#455A64"/>
<path d="M411.68 249.22C411.398 249.014 411.155 248.76 410.96 248.47C410.54 247.94 410.08 247.06 409.42 246.04H409.69C408.071 249.2 406.177 252.212 404.03 255.04L403.83 255.31L403.62 255.04C402.62 253.793 401.62 252.46 400.62 251.04L398.32 248.04H398.7L395 251.3L393.34 252.73L392.57 253.4L392.2 253.72L392.11 253.8H392C392 253.89 391.67 253.68 391.74 253.59V253.53C391.74 253.53 391.81 253.7 391.84 253.69L391.67 253.74L391.61 253.55C391.02 251.55 390.61 249.97 390.36 248.83C390.189 248.25 390.121 247.644 390.16 247.04C390.267 247.627 390.403 248.207 390.57 248.78C390.88 249.89 391.35 251.48 392 253.43L391.77 253.29C391.842 253.27 391.918 253.27 391.99 253.29C392.04 253.307 392.083 253.339 392.114 253.382C392.145 253.425 392.161 253.477 392.16 253.53C392.17 253.576 392.17 253.624 392.16 253.67H392.11L391.97 253.61C391.96 253.572 391.939 253.537 391.91 253.51L391.85 253.45L391.93 253.37L392.3 253.04L393.06 252.36C393.58 251.89 394.12 251.36 394.69 250.9L398.34 247.65L398.55 247.46L398.73 247.69L401.03 250.69C402.09 252.07 403.11 253.41 404.03 254.69H403.62C405.768 251.892 407.703 248.937 409.41 245.85L409.55 245.61L409.69 245.84C410.33 246.91 410.69 247.84 411.1 248.35C411.51 248.86 411.71 249.19 411.68 249.22Z" fill="#455A64"/>
<path d="M394 235C393.994 235.34 393.937 235.677 393.83 236C393.68 236.62 393.45 237.5 393.13 238.59C392.5 240.76 391.52 243.74 390.26 246.95C389 250.16 387.68 253.01 386.66 255.03C386.15 256.03 385.72 256.85 385.4 257.4C385.26 257.699 385.082 257.978 384.87 258.23C385.287 257.083 385.771 255.961 386.32 254.87C387.25 252.81 388.5 249.96 389.76 246.76C391.02 243.56 392.05 240.61 392.76 238.47C393.098 237.288 393.513 236.129 394 235V235Z" fill="#455A64"/>
<path d="M401.24 215.93C399.863 216.436 398.407 216.696 396.94 216.7L397.13 216.34L399.06 219.47L400.28 221.47L400.57 221.96L400.01 221.85C398.161 221.578 396.298 221.421 394.43 221.38C394.943 221.211 395.48 221.127 396.02 221.13C397.384 221.043 398.753 221.117 400.1 221.35L399.84 221.73L398.6 219.73L396.73 216.57L396.52 216.22H396.92C398.2 216.16 399.29 216.08 400.04 216.01C400.436 215.944 400.838 215.917 401.24 215.93Z" fill="#455A64"/>
<path d="M394 235C393.994 235.34 393.937 235.677 393.83 236C393.68 236.62 393.45 237.5 393.13 238.59C392.5 240.76 391.52 243.74 390.26 246.95C389 250.16 387.68 253.01 386.66 255.03C386.15 256.03 385.72 256.85 385.4 257.4C385.26 257.699 385.082 257.978 384.87 258.23C385.287 257.083 385.771 255.961 386.32 254.87C387.25 252.81 388.5 249.96 389.76 246.76C391.02 243.56 392.05 240.61 392.76 238.47C393.098 237.288 393.513 236.129 394 235V235Z" fill="#455A64"/>
<path d="M301.363 222.283L278.117 302.035C276.918 306.149 279.281 310.457 283.396 311.656L414.049 349.738C418.164 350.937 422.471 348.574 423.671 344.459L446.916 264.708C448.115 260.594 445.752 256.286 441.638 255.087L310.984 217.005C306.87 215.805 302.562 218.169 301.363 222.283Z" fill="#FFEFFA"/>
<g opacity="0.3">
<path opacity="0.3" d="M301.363 222.283L278.117 302.035C276.918 306.149 279.281 310.457 283.396 311.656L414.049 349.738C418.164 350.937 422.471 348.574 423.671 344.459L446.916 264.708C448.115 260.594 445.752 256.286 441.638 255.087L310.984 217.005C306.87 215.805 302.562 218.169 301.363 222.283Z" fill="#FFEFFA"/>
</g>
<path d="M296.78 279.1L294.42 287.18L293.59 286.94L295.73 279.6L293.82 279.04L294.04 278.3L296.78 279.1Z" fill="white"/>
<path d="M305 288.86L304.78 289.6L299.07 288L299.24 287.41L303.56 285.1C304.74 284.47 305.07 283.97 305.23 283.42C305.5 282.48 305.01 281.72 303.78 281.36C303.376 281.214 302.944 281.161 302.517 281.204C302.089 281.247 301.677 281.386 301.31 281.61L300.87 280.93C301.348 280.648 301.882 280.473 302.435 280.418C302.987 280.363 303.545 280.428 304.07 280.61C305.71 281.09 306.5 282.23 306.07 283.61C305.85 284.38 305.4 285 304.01 285.75L300.47 287.65L305 288.86Z" fill="white"/>
<path d="M313.87 290L312.25 289.53L311.63 291.65L310.8 291.41L311.42 289.28L306.86 288L307.03 287.4L312.88 283.3L313.8 283.57L308.15 287.57L311.66 288.57L312.2 286.7L313.01 286.94L312.47 288.81L314.08 289.28L313.87 290Z" fill="white"/>
<path d="M326.25 293.57L324.63 293.09L324.01 295.22L323.18 294.98L323.8 292.85L319.24 291.52L319.42 290.92L325.26 286.81L326.18 287.08L320.53 291.08L324.04 292.08L324.58 290.21L325.39 290.44L324.85 292.32L326.46 292.79L326.25 293.57Z" fill="white"/>
<path d="M333.39 295.37C332.98 296.74 331.71 297.54 329.74 296.96C328.663 296.693 327.731 296.019 327.14 295.08L327.74 294.54C327.989 294.952 328.317 295.31 328.705 295.595C329.093 295.88 329.533 296.085 330 296.2C331.37 296.6 332.3 296.14 332.58 295.2C332.86 294.26 332.43 293.32 330.37 292.73L328.65 292.22L330.25 288.29L334.67 289.58L334.46 290.32L330.76 289.24L329.76 291.74L330.76 292.04C333.16 292.71 333.8 293.94 333.39 295.37Z" fill="white"/>
<path d="M341.38 297.66C341.179 298.324 340.723 298.882 340.112 299.211C339.502 299.541 338.786 299.616 338.12 299.42L337.9 299.34C335.75 298.72 335.02 296.89 335.76 294.34C336.56 291.6 338.48 290.6 340.67 291.24C341.348 291.401 341.968 291.747 342.46 292.24L341.93 292.81C341.538 292.391 341.03 292.098 340.47 291.97C338.73 291.46 337.28 292.26 336.65 294.45C336.59 294.67 336.53 294.89 336.49 295.12C336.853 294.743 337.317 294.48 337.826 294.361C338.335 294.242 338.868 294.273 339.36 294.45C339.69 294.507 340.006 294.628 340.29 294.807C340.573 294.986 340.819 295.22 341.012 295.494C341.205 295.768 341.342 296.077 341.416 296.404C341.489 296.731 341.497 297.07 341.44 297.4L341.38 297.66ZM340.55 297.45C340.619 297.218 340.641 296.975 340.615 296.735C340.59 296.494 340.517 296.261 340.4 296.049C340.284 295.837 340.127 295.651 339.938 295.5C339.749 295.349 339.532 295.237 339.3 295.17C339.212 295.141 339.122 295.12 339.03 295.11C338.811 295.002 338.572 294.939 338.329 294.923C338.085 294.908 337.84 294.94 337.609 295.019C337.378 295.098 337.164 295.222 336.981 295.383C336.798 295.545 336.648 295.741 336.54 295.96C336.432 296.179 336.369 296.418 336.353 296.661C336.338 296.905 336.37 297.15 336.449 297.381C336.528 297.612 336.652 297.826 336.813 298.009C336.975 298.192 337.171 298.342 337.39 298.45C337.59 298.549 337.807 298.61 338.03 298.63C338.476 298.829 338.982 298.843 339.438 298.668C339.893 298.494 340.261 298.146 340.46 297.7C340.5 297.621 340.531 297.537 340.55 297.45V297.45Z" fill="white"/>
<path d="M352.41 301C352.02 302.35 350.73 303.1 348.78 302.53C347.703 302.257 346.77 301.585 346.17 300.65L346.77 300.1C347.266 300.927 348.067 301.527 349 301.77C350.34 302.16 351.26 301.77 351.56 300.77C351.86 299.77 351.34 298.96 349.84 298.53L349.26 298.36L349.44 297.75L352.5 295.59L348.37 294.39L348.58 293.65L353.78 295.16L353.61 295.75L350.48 298C352.19 298.52 352.79 299.68 352.41 301Z" fill="white"/>
<path d="M360.54 303.25C360.438 303.58 360.273 303.888 360.052 304.154C359.832 304.42 359.561 304.64 359.256 304.802C358.95 304.964 358.616 305.063 358.272 305.096C357.927 305.128 357.58 305.092 357.25 304.99L357.05 304.92C354.91 304.3 354.18 302.47 354.92 299.92C355.72 297.17 357.64 296.18 359.83 296.81C360.504 296.98 361.122 297.325 361.62 297.81L361.09 298.38C360.691 297.969 360.185 297.678 359.63 297.54C357.89 297.04 356.44 297.83 355.8 300.02C355.74 300.24 355.69 300.46 355.65 300.69C356.009 300.308 356.474 300.042 356.985 299.925C357.496 299.807 358.03 299.844 358.52 300.03C358.852 300.087 359.17 300.209 359.455 300.389C359.74 300.57 359.986 300.805 360.18 301.081C360.373 301.357 360.51 301.669 360.582 301.998C360.654 302.328 360.66 302.668 360.6 303C360.589 303.085 360.568 303.169 360.54 303.25ZM359.71 303.03C359.777 302.795 359.796 302.549 359.768 302.306C359.739 302.064 359.662 301.829 359.542 301.616C359.422 301.403 359.261 301.216 359.069 301.066C358.876 300.915 358.656 300.805 358.42 300.74L358.19 300.69C357.971 300.582 357.732 300.519 357.488 300.503C357.245 300.488 357 300.52 356.769 300.599C356.538 300.678 356.324 300.802 356.141 300.963C355.958 301.125 355.808 301.321 355.7 301.54C355.592 301.759 355.529 301.998 355.513 302.241C355.498 302.485 355.53 302.73 355.609 302.961C355.688 303.192 355.812 303.406 355.973 303.589C356.135 303.772 356.331 303.922 356.55 304.03C356.75 304.129 356.967 304.19 357.19 304.21C357.411 304.308 357.65 304.362 357.892 304.368C358.134 304.373 358.374 304.331 358.6 304.244C358.826 304.157 359.032 304.026 359.207 303.859C359.382 303.692 359.522 303.491 359.62 303.27C359.62 303.18 359.69 303.09 359.71 303V303.03Z" fill="white"/>
<path d="M369.62 299.74L369.45 300.33L363.89 306.84L362.99 306.58L368.45 300.2L364.29 299L363.85 300.51L363.03 300.27L363.69 298.02L369.62 299.74Z" fill="white"/>
<path d="M381.17 303.11L381 303.7L375.44 310.2L374.54 309.94L380 303.57L375.84 302.36L375.4 303.87L374.58 303.63L375.24 301.38L381.17 303.11Z" fill="white"/>
<path d="M387.43 311.26C387.01 312.69 385.54 313.26 383.61 312.66C381.68 312.06 380.75 310.86 381.17 309.43C381.296 308.967 381.577 308.563 381.967 308.284C382.357 308.005 382.832 307.869 383.31 307.9C382.968 307.672 382.71 307.339 382.575 306.951C382.44 306.563 382.434 306.141 382.56 305.75C382.94 304.44 384.3 303.94 386.01 304.44C387.72 304.94 388.62 306.09 388.23 307.44C388.123 307.839 387.888 308.192 387.561 308.445C387.234 308.698 386.833 308.837 386.42 308.84C386.835 309.072 387.161 309.436 387.344 309.875C387.527 310.314 387.557 310.802 387.43 311.26ZM386.58 311C386.87 310 386.19 309.13 384.76 308.71C383.33 308.29 382.3 308.71 382.01 309.71C381.72 310.71 382.38 311.58 383.82 312C385.26 312.42 386.28 312 386.58 311ZM385 308.05C386.26 308.42 387.18 308.05 387.43 307.2C387.68 306.35 387.06 305.5 385.85 305.15C384.64 304.8 383.69 305.15 383.43 306.02C383.17 306.89 383.69 307.69 385 308.05Z" fill="white"/>
<path d="M395.82 311.68C395.02 314.43 393.1 315.43 390.9 314.79C390.227 314.623 389.613 314.277 389.12 313.79L389.65 313.22C390.04 313.637 390.544 313.929 391.1 314.06C392.85 314.57 394.29 313.77 394.93 311.58C394.99 311.36 395.05 311.14 395.09 310.91C394.731 311.292 394.266 311.558 393.755 311.675C393.244 311.793 392.71 311.756 392.22 311.57C391.891 311.513 391.577 311.392 391.295 311.213C391.013 311.035 390.77 310.802 390.578 310.529C390.387 310.255 390.251 309.947 390.179 309.621C390.108 309.295 390.101 308.958 390.16 308.63C390.17 308.538 390.191 308.448 390.22 308.36C390.417 307.697 390.869 307.14 391.476 306.81C392.083 306.48 392.797 306.405 393.46 306.6L393.7 306.68C395.83 307.3 396.56 309.13 395.82 311.68ZM395.14 309.75C395.243 309.23 395.136 308.691 394.841 308.25C394.547 307.81 394.09 307.504 393.57 307.4H393.51C393.061 307.232 392.564 307.246 392.125 307.439C391.686 307.632 391.34 307.989 391.16 308.433C390.981 308.878 390.981 309.375 391.162 309.819C391.343 310.263 391.691 310.618 392.13 310.81C392.252 310.86 392.38 310.897 392.51 310.92C392.754 311.02 393.014 311.07 393.277 311.069C393.541 311.067 393.801 311.014 394.043 310.912C394.286 310.809 394.506 310.66 394.69 310.473C394.875 310.286 395.021 310.064 395.12 309.82C395.12 309.795 395.127 309.771 395.14 309.75V309.75Z" fill="white"/>
<path d="M405.17 310.1L402.81 318.18L401.98 317.94L404.12 310.6L402.21 310.04L402.43 309.3L405.17 310.1Z" fill="white"/>
<path d="M409.69 319.86L409.47 320.6L403.8 319L403.97 318.41L408.29 316.1C409.47 315.47 409.8 314.97 409.96 314.42C410.23 313.49 409.74 312.72 408.51 312.36C408.106 312.214 407.674 312.161 407.247 312.204C406.819 312.247 406.407 312.386 406.04 312.61L405.6 311.93C406.079 311.649 406.613 311.476 407.166 311.423C407.718 311.369 408.276 311.437 408.8 311.62C410.44 312.09 411.23 313.23 410.8 314.62C410.57 315.39 410.13 316.01 408.74 316.76L405.2 318.66L409.69 319.86Z" fill="white"/>
<path d="M417 320.4C416.6 321.75 415.32 322.5 413.37 321.93C412.298 321.638 411.379 320.948 410.8 320L411.4 319.46C411.643 319.871 411.966 320.231 412.348 320.517C412.731 320.804 413.167 321.012 413.63 321.13C414.97 321.52 415.89 321.13 416.18 320.13C416.47 319.13 415.97 318.32 414.47 317.89L413.89 317.72L414.07 317.1L417.12 314.95L412.99 313.75L413.21 313.01L418.4 314.52L418.23 315.11L415.11 317.32C416.81 317.94 417.41 319.1 417 320.4Z" fill="white"/>
<path d="M354.544 310.644L353.523 314.148L418.244 333L419.264 329.496L354.544 310.644Z" fill="white"/>
<path d="M384.036 326.815L383.013 330.329L416.213 340L417.237 336.486L384.036 326.815Z" fill="white"/>
<path d="M298.369 255.219L295.232 265.981C294.465 268.611 295.976 271.364 298.606 272.131L316.242 277.271C318.872 278.038 321.625 276.527 322.392 273.897L325.529 263.135C326.295 260.505 324.785 257.752 322.155 256.985L304.519 251.845C301.889 251.078 299.135 252.589 298.369 255.219Z" fill="#263238"/>
<path d="M295.5 265.12L295.88 263.82L309.88 267.9C310.657 268.127 311.492 268.036 312.202 267.646C312.912 267.257 313.438 266.602 313.665 265.825C313.892 265.048 313.801 264.213 313.411 263.503C313.022 262.793 312.367 262.267 311.59 262.04L297.59 257.97L297.97 256.67L311.97 260.74C313.043 261.107 313.933 261.873 314.456 262.88C314.979 263.886 315.094 265.055 314.777 266.144C314.461 267.233 313.737 268.158 312.756 268.727C311.775 269.296 310.612 269.466 309.51 269.2L295.5 265.12Z" fill="white"/>
<path d="M314.469 265.337L314.088 266.642L323.686 269.449L324.067 268.143L314.469 265.337Z" fill="white"/>
<path d="M307.844 234.697L306.098 240.688L375.942 261.045L377.688 255.055L307.844 234.697Z" fill="white"/>
<path d="M412.17 248.91L395 237.63C395 237.63 386.61 261.79 384 262.03C369.76 263.33 354.52 258.6 349.18 256.74C348.64 256.13 348.02 255.4 347.33 254.5C346.742 253.728 346.289 252.863 345.99 251.94C345.573 250.808 345.317 249.623 345.23 248.42C345.258 248.126 345.169 247.833 344.981 247.604C344.794 247.376 344.524 247.23 344.23 247.2C344.063 247.187 343.895 247.21 343.737 247.269C343.58 247.328 343.438 247.42 343.32 247.54C342.7 248.34 342.54 251.39 343.95 254.68C345.36 257.97 340.38 255.35 338.55 254.43C336.72 253.51 330.92 250.93 330.19 251.27C329.13 251.77 329.46 253 331.31 253.88C333.16 254.76 338.52 257.77 337.99 258.71C337.46 259.65 328.21 254.83 328.21 254.83C328.21 254.83 326.4 253.49 325.75 254.56C324.57 256.49 334.75 260.87 335.75 261.26C336.43 261.54 335.89 262.58 335.17 262.26C334.45 261.94 326.05 257.26 324.84 259.2C323.91 260.7 333.21 262.89 334.41 264.82C335.61 266.75 327.52 262.45 326.69 263.91C326.38 264.46 326.23 264.91 331.23 266.72C334.891 267.861 338.609 268.809 342.37 269.56V269.61C342.37 269.61 393.43 292.47 403.09 270.42C413.43 246.92 412.17 248.91 412.17 248.91Z" fill="#E5BAAB"/>
<path d="M400.9 215.88C400.9 215.88 416.5 217.72 414.9 236.28C413.856 247.754 410.632 258.924 405.4 269.19L384.94 258.45C389.547 249.26 393.013 239.541 395.26 229.51L401 215.88H400.9Z" fill="#FFF8E8"/>
<g opacity="0.2">
<path opacity="0.2" d="M400.9 215.88C400.9 215.88 416.5 217.72 414.9 236.28C413.856 247.754 410.632 258.924 405.4 269.19L384.94 258.45C389.547 249.26 393.013 239.541 395.26 229.51L401 215.88H400.9Z" fill="white"/>
</g>
<path d="M410.42 223.86C410.42 223.95 408.97 223.6 406.48 223.54L406.65 223.35C407.24 225.69 408.02 228.81 408.93 232.41L409.03 232.83L408.62 232.72L402.26 231L400.53 230.52L400.87 230.25C401.01 233.7 401.14 236.9 401.25 239.65V239.95L400.97 239.87L394.86 238.16L393.17 237.66C392.968 237.609 392.773 237.531 392.59 237.43C392.8 237.433 393.009 237.467 393.21 237.53L394.93 237.92L401.06 239.44L400.79 239.67C400.65 236.92 400.49 233.72 400.32 230.28V229.91L400.68 230.01L402.41 230.49L408.75 232.26L408.44 232.57C407.6 228.94 406.88 225.8 406.33 223.44L406.28 223.24H406.5C407.478 223.288 408.451 223.412 409.41 223.61C409.754 223.659 410.093 223.743 410.42 223.86Z" fill="#455A64"/>
<path d="M411.68 249.22C411.398 249.014 411.155 248.76 410.96 248.47C410.54 247.94 410.08 247.06 409.42 246.04H409.69C408.071 249.2 406.177 252.212 404.03 255.04L403.83 255.31L403.62 255.04C402.62 253.793 401.62 252.46 400.62 251.04L398.32 248.04H398.7L395 251.3L393.34 252.73L392.57 253.4L392.2 253.72L392.11 253.8H392C392 253.89 391.67 253.68 391.74 253.59V253.53C391.74 253.53 391.81 253.7 391.84 253.69L391.67 253.74L391.61 253.55C391.02 251.55 390.61 249.97 390.36 248.83C390.189 248.25 390.121 247.644 390.16 247.04C390.267 247.627 390.403 248.207 390.57 248.78C390.88 249.89 391.35 251.48 392 253.43L391.77 253.29C391.842 253.27 391.918 253.27 391.99 253.29C392.04 253.307 392.083 253.339 392.114 253.382C392.145 253.425 392.161 253.477 392.16 253.53C392.17 253.576 392.17 253.624 392.16 253.67H392.11L391.97 253.61C391.96 253.572 391.939 253.537 391.91 253.51L391.85 253.45L391.93 253.37L392.3 253.04L393.06 252.36C393.58 251.89 394.12 251.36 394.69 250.9L398.34 247.65L398.55 247.46L398.73 247.69L401.03 250.69C402.09 252.07 403.11 253.41 404.03 254.69H403.62C405.768 251.892 407.703 248.937 409.41 245.85L409.55 245.61L409.69 245.84C410.33 246.91 410.69 247.84 411.1 248.35C411.51 248.86 411.71 249.19 411.68 249.22Z" fill="#455A64"/>
</svg>
